<?xml version="1.0" standalone="no"?>
<!DOCTYPE svg PUBLIC "-//W3C//DTD SVG 1.1//EN" "http://www.w3.org/Graphics/SVG/1.1/DTD/svg11.dtd" >
<svg xmlns="http://www.w3.org/2000/svg">
<metadata></metadata>
<defs>
<font id="ProximaSansMedium" horiz-adv-x="1294" >
<font-face units-per-em="2048" ascent="1540" descent="-508" />
<missing-glyph horiz-adv-x="425" />
<glyph unicode=" "  horiz-adv-x="425" />
<glyph unicode="&#x09;" horiz-adv-x="425" />
<glyph unicode="&#xa0;" horiz-adv-x="425" />
<glyph unicode="!" horiz-adv-x="512" d="M82 162q0 37 13.5 68.5t37 55t55 38t68.5 14.5t68.5 -14.5t55 -38t38 -55t14.5 -68.5t-14.5 -69t-38 -55.5t-55 -37.5t-68.5 -14t-68.5 14t-55 37.5t-37 55.5t-13.5 69zM94 1366h326l-47 -924h-232z" />
<glyph unicode="&#x22;" horiz-adv-x="884" d="M82 1210.5v18.5q0 66 47 113t113 47t112.5 -47t46.5 -113v-18.5t-4 -16.5l-92 -399h-127l-92 397q-4 10 -4 18.5zM483 1229q0 66 47.5 113t112.5 47q66 0 114 -47.5t48 -112.5h-2v-18.5t-4 -16.5l-92 -399h-127l-93 397q-2 10 -3 18.5t-1 18.5z" />
<glyph unicode="#" d="M55 352l51 166h201l109 328h-201l53 168h205l117 352h186l-117 -352h193q12 37 32.5 96t39.5 117q23 68 45 139h186q-23 -72 -45 -139q-18 -57 -38.5 -116.5t-33.5 -96.5h201l-51 -168h-207q-12 -37 -30.5 -92.5t-36 -107.5t-30.5 -90l-14 -38h209l-53 -166h-211 l-117 -352h-186l119 352h-195l-117 -352h-186l119 352h-197zM494 518h192q23 66 43 127q16 53 34.5 108.5t31.5 92.5h-193z" />
<glyph unicode="$" d="M66 188l174 199q14 -20 43.5 -50t69.5 -58.5t90.5 -53t105.5 -35.5v385q-133 25 -221 66t-140.5 96.5t-74 120t-21.5 133.5q0 78 34 147.5t93.5 125t143 92.5t184.5 47v170h188v-172q82 -8 147.5 -27.5t119 -47.5t93.5 -59.5t70 -64.5l-170 -178q-41 49 -111.5 91 t-148.5 59v-351q109 -20 196 -54t148.5 -84t95 -121t33.5 -167q0 -98 -36.5 -174t-101 -129t-150.5 -85t-185 -44v-170h-186v168q-92 6 -167 29.5t-134.5 55.5t-104.5 69t-77 71zM379 1008q0 -53 41 -91t133 -57v316q-70 -8 -122 -51.5t-52 -116.5zM727 193q82 10 138.5 54 t56.5 122q0 127 -195 170v-346z" />
<glyph unicode="%" horiz-adv-x="1595" d="M55 1061q0 72 24.5 134t71 109.5t110 75t142.5 27.5q80 0 143.5 -27.5t109.5 -75t71 -109.5t25 -134q0 -70 -25 -132.5t-71 -109.5t-109.5 -74.5t-143.5 -27.5t-143 27.5t-109.5 74.5t-71 109.5t-24.5 132.5zM236 1061q0 -90 44 -145.5t123 -55.5q78 0 123 55.5t45 145.5 q0 92 -45 148.5t-123 56.5q-80 0 -123.5 -56.5t-43.5 -148.5zM264 0l875 1366h198l-872 -1366h-201zM846 303q0 70 24.5 132.5t70.5 109.5t109.5 74.5t143.5 27.5t144.5 -27.5t110.5 -74.5t70.5 -109.5t24.5 -132.5t-24.5 -132t-70.5 -109.5t-110.5 -75t-144.5 -27.5 t-143.5 27.5t-109.5 75t-70.5 109.5t-24.5 132zM1028 303q0 -92 44 -147.5t122 -55.5q80 0 124 55.5t44 147.5t-44 147.5t-124 55.5q-78 0 -122 -55.5t-44 -147.5z" />
<glyph unicode="&#x26;" horiz-adv-x="1368" d="M84 367q0 115 67.5 221t239.5 194q-53 78 -78.5 146.5t-25.5 140.5q0 70 27.5 131.5t79.5 107.5t126 72.5t166 26.5q74 0 138.5 -19.5t113.5 -57.5t77.5 -93t28.5 -125q0 -123 -89 -218t-226 -167q10 -14 26.5 -34.5t26.5 -33.5q33 -43 75 -94t95 -110q37 66 59.5 122 t43.5 117l219 -94q-14 -39 -33.5 -81t-42 -84t-46.5 -82t-48 -72q66 -72 131 -147t119 -134h-346q-12 14 -37 44t-47 56q-59 -59 -155.5 -100t-229.5 -41q-84 0 -165 24.5t-145.5 75t-104.5 127t-40 181.5zM373 385q0 -53 18.5 -92t47 -64.5t62.5 -38t66 -12.5 q72 0 125 26.5t90 61.5q-59 74 -111.5 136.5t-97.5 121.5q-14 18 -28.5 40t-28.5 40q-84 -49 -113.5 -99t-29.5 -120zM559 1061q0 -41 20.5 -86t45.5 -84q80 41 131 87t51 105q0 49 -34 86t-77 37q-59 0 -98 -39t-39 -106z" />
<glyph unicode="'" horiz-adv-x="483" d="M82 1210.5v18.5q0 66 47 113t113 47t112.5 -47t46.5 -113v-18.5t-4 -16.5l-92 -399h-127l-92 397q-4 10 -4 18.5z" />
<glyph unicode="(" horiz-adv-x="589" d="M84 682q0 131 23.5 259t66.5 245t101.5 219t127.5 182l168 -63q-98 -186 -149 -393t-51 -449t51 -447.5t149 -392.5l-168 -63q-70 80 -128 182t-101 220t-66.5 245t-23.5 256z" />
<glyph unicode=")" horiz-adv-x="589" d="M18 -158q98 186 149.5 392t51.5 448t-51 448.5t-150 393.5l168 63q70 -80 128.5 -182t101.5 -219t66.5 -245t23.5 -259q0 -129 -23.5 -256t-66.5 -245t-101.5 -220t-128.5 -182z" />
<glyph unicode="*" horiz-adv-x="712" d="M47 989l191 101l-191 98l70 119l180 -115l-10 215h139l-10 -215l182 115l70 -119l-191 -98l191 -101l-70 -119l-182 115l10 -213h-139l10 213l-180 -115z" />
<glyph unicode="+" horiz-adv-x="1046" d="M59 420v164h373v405h182v-405h373v-164h-373v-420h-182v420h-373z" />
<glyph unicode="," horiz-adv-x="512" d="M82 162q0 37 13.5 68.5t37 55t55 38t68.5 14.5q29 0 59.5 -10.5t57 -34t43 -61.5t16.5 -93q0 -121 -52 -223t-151 -190l-116 94q20 16 43.5 37.5t46 45t39 48t20.5 49.5q-16 -4 -38.5 -1t-39.5 9q-41 16 -71.5 58.5t-30.5 95.5z" />
<glyph unicode="-" horiz-adv-x="614" d="M61 377v235h492v-235h-492z" />
<glyph unicode="." horiz-adv-x="512" d="M82 162q0 37 13.5 68.5t37 55t55 38t68.5 14.5t68.5 -14.5t55 -38t38 -55t14.5 -68.5t-14.5 -69t-38 -55.5t-55 -37.5t-68.5 -14t-68.5 14t-55 37.5t-37 55.5t-13.5 69z" />
<glyph unicode="/" horiz-adv-x="669" d="M0 -41l485 1448h185l-486 -1448h-184z" />
<glyph unicode="0" d="M49 682q0 131 35 261t108.5 232.5t187.5 167t269 64.5q158 0 270.5 -64.5t186.5 -167t108.5 -232.5t34.5 -261t-34.5 -260t-108.5 -231.5t-186.5 -167t-270.5 -64.5q-156 0 -269.5 64.5t-187 167t-108.5 231.5t-35 260zM348 682q0 -76 13.5 -161t47 -156.5t92 -117.5 t148.5 -46t148.5 46t92.5 117.5t47 156.5t13 161q0 78 -13 163t-47 155.5t-92.5 116.5t-148.5 46t-148.5 -46t-92 -116.5t-47 -155.5t-13.5 -163z" />
<glyph unicode="1" d="M238 948l421 418h254v-1366h-297v979l-200 -213z" />
<glyph unicode="2" d="M102 1186q31 47 90.5 87t134 69.5t158.5 47t166 17.5q250 0 389.5 -112.5t139.5 -311.5q0 -72 -26 -137.5t-65.5 -121.5t-90 -103.5t-97.5 -81.5q-72 -53 -138.5 -106.5t-119.5 -96.5q-61 -51 -113 -94h660v-242h-1071v219q74 66 157 137q72 61 165.5 137t193.5 154 q113 86 179.5 159t66.5 150q0 53 -19.5 92t-54.5 65t-80 38t-98 12q-115 0 -211 -52t-144 -120z" />
<glyph unicode="3" d="M88 188l166 201q63 -86 160.5 -137t226.5 -51q66 0 115 16t80.5 43t48 60.5t16.5 68.5q0 74 -42 115t-107.5 58.5t-148.5 18.5t-165 -3v237q96 -4 177 0t139.5 23.5t91.5 56.5t33 98q0 86 -71 128t-179 42q-57 0 -112.5 -14t-102.5 -39t-85 -56.5t-61 -64.5l-162 191 q41 51 98.5 93t126 71.5t148.5 46t162 16.5q111 0 208 -22.5t170 -69.5t114 -119t41 -172q0 -57 -23 -111.5t-62.5 -97.5t-95 -72.5t-121.5 -37.5q150 -20 237 -110.5t87 -227.5q0 -92 -38 -168t-109.5 -129.5t-174 -82t-233.5 -28.5q-188 0 -322.5 59.5t-230.5 169.5z" />
<glyph unicode="4" d="M78 291v215l559 860h414v-836h178v-239h-176v-291h-297v291h-678zM385 530h371v576z" />
<glyph unicode="5" d="M96 188l176 201q59 -76 155.5 -132t215.5 -56q68 0 117 19.5t83 52t50 72.5t16 83q0 119 -74.5 176.5t-203.5 57.5q-84 0 -158 -34t-117 -98l-215 78v758h969v-244h-676v-358q39 49 123 86t195 37q96 0 178 -31t143.5 -89t96 -142.5t34.5 -190.5q0 -102 -40 -189 t-111.5 -150.5t-174 -99.5t-229.5 -36q-193 0 -334 64.5t-219 164.5z" />
<glyph unicode="6" d="M82 682q0 147 43 279.5t127 231.5t207 156.5t282 57.5q123 0 230.5 -39t185.5 -106l-147 -211q-47 53 -117 81.5t-152 28.5q-86 0 -152.5 -34.5t-112.5 -95t-70.5 -140.5t-24.5 -170q53 82 144 131t227 49q96 0 182 -32.5t151.5 -92t104.5 -146t39 -192.5 q0 -111 -46 -199.5t-123 -151t-178.5 -95.5t-209.5 -33q-154 0 -264.5 57.5t-183 155.5t-107.5 230.5t-35 279.5zM385 526q4 -59 22.5 -117.5t52.5 -103.5t86 -72.5t126 -27.5q61 0 109 20.5t81 54t50.5 76.5t17.5 86q0 63 -23.5 109.5t-61.5 75t-86 43t-100 14.5 q-49 0 -94 -13.5t-79.5 -36t-61.5 -51t-39 -57.5z" />
<glyph unicode="7" d="M102 1110v256h1086v-225l-557 -1141h-348l608 1110h-789z" />
<glyph unicode="8" horiz-adv-x="1280" d="M92 356q0 51 23.5 105.5t64.5 102.5t97.5 86t121.5 55q-61 14 -113.5 46.5t-91 76.5t-60 96.5t-21.5 105.5q0 94 43 165t115.5 118t170 70.5t203.5 23.5q109 0 205 -23.5t169 -70.5t116 -118t43 -165q0 -53 -22.5 -105.5t-60.5 -96.5t-90.5 -76.5t-113.5 -46.5 q66 -16 122 -54.5t97 -86.5t64.5 -102.5t23.5 -105.5q0 -98 -44 -171.5t-120 -124t-176 -76t-213 -25.5t-213 25.5t-176 76t-120 124t-44 171.5zM387 389q0 -86 68.5 -140t189.5 -54t189.5 54t68.5 140q0 47 -29.5 84t-71.5 63.5t-85 43t-72 20.5q-27 -4 -71 -20.5t-86 -43 t-71.5 -63.5t-29.5 -84zM408 987q0 -43 28.5 -75.5t67.5 -56.5t79 -37t62 -19q25 6 65 19t77.5 37t66.5 56.5t29 75.5q0 49 -20.5 84t-53.5 57.5t-76 32.5t-88 10t-88 -10t-75.5 -32.5t-53 -57.5t-20.5 -84z" />
<glyph unicode="9" d="M66 926q0 113 46 202t122.5 151t177 95t209.5 33q154 0 265 -57.5t183 -156.5t106.5 -231.5t34.5 -279.5t-43 -279.5t-127 -230.5t-205.5 -155.5t-281.5 -57.5q-123 0 -230.5 39t-185.5 106l148 209q47 -51 116.5 -79.5t151.5 -28.5q86 0 152.5 34.5t112.5 95t70.5 140.5 t24.5 168q-53 -80 -144 -129t-226 -49q-96 0 -183.5 32.5t-153 92t-103 144.5t-37.5 192zM365 926q0 -63 23.5 -110.5t61 -76t86 -43t99.5 -14.5q49 0 94 14.5t80 37t61.5 51t38.5 57.5q-4 59 -22.5 116.5t-52 102.5t-87 72.5t-126.5 27.5q-61 0 -109.5 -20.5t-80.5 -54 t-49 -75.5t-17 -85z" />
<glyph unicode=":" horiz-adv-x="512" d="M82 162q0 37 13.5 68.5t37 55t55 38t68.5 14.5t68.5 -14.5t55 -38t38 -55t14.5 -68.5t-14.5 -69t-38 -55.5t-55 -37.5t-68.5 -14t-68.5 14t-55 37.5t-37 55.5t-13.5 69zM82 829q0 72 51 123.5t123 51.5q74 0 125 -51.5t51 -123.5q0 -37 -13 -68.5t-38 -55t-56.5 -38 t-68.5 -14.5t-68.5 14.5t-55 38t-37 55.5t-13.5 68z" />
<glyph unicode=";" horiz-adv-x="512" d="M82 162q0 37 13.5 68.5t37 55t55 38t68.5 14.5q29 0 60.5 -10.5t57 -35t42 -62t16.5 -93.5v2q0 -121 -51 -223t-150 -190l-118 94q20 16 43.5 37.5t46 45t39 48t20.5 49.5q-16 -4 -38.5 -1t-39.5 9q-41 16 -71.5 58.5t-30.5 95.5zM82 829q0 72 51 123.5t123 51.5 q74 0 125 -51.5t51 -123.5q0 -37 -13 -68.5t-38 -55t-56.5 -38t-68.5 -14.5t-68.5 14.5t-55 38t-37 55.5t-13.5 68z" />
<glyph unicode="&#x3c;" horiz-adv-x="1046" d="M59 401v189l928 428v-195l-751 -329l751 -328v-193z" />
<glyph unicode="=" horiz-adv-x="1046" d="M59 207v164h928v-164h-928zM59 633v164h928v-164h-928z" />
<glyph unicode="&#x3e;" horiz-adv-x="1046" d="M59 -27v193l752 328l-752 329v195l928 -428v-189z" />
<glyph unicode="?" horiz-adv-x="931" d="M23 1235q39 35 80.5 66.5t93 55t114 37t138.5 13.5q92 0 170.5 -25.5t136 -70.5t90.5 -108.5t33 -139.5q0 -63 -17.5 -112.5t-51.5 -89.5t-81 -72.5t-108 -65.5q-31 -16 -49.5 -42t-23.5 -53.5t3 -54t29 -45.5l-197 -122q-59 51 -80.5 113.5t-13.5 124t44 114.5t89 86 q57 35 95 61.5t59.5 50t29.5 46t8 51.5q0 59 -51 92t-129 33q-90 0 -147.5 -33t-106.5 -92zM262 162q0 37 14.5 68.5t38 55t55 38t68.5 14.5t69 -14.5t55.5 -38t37.5 -55t14 -68.5t-14 -69t-37.5 -55.5t-55.5 -37.5t-69 -14t-68.5 14t-55 37.5t-38 55.5t-14.5 69z" />
<glyph unicode="@" horiz-adv-x="1603" d="M76 684q18 150 90 282t182.5 230t248.5 155.5t288 57.5q152 0 274.5 -56.5t207.5 -154.5t128 -230t33 -284q-6 -92 -43 -174t-92.5 -143.5t-123 -98.5t-136.5 -37q-37 0 -72 8.5t-65.5 26t-53 45t-33.5 66.5q-51 -66 -126.5 -98.5t-166.5 -32.5q-80 0 -145 30.5t-106 90 t-53.5 144.5t10.5 191t71.5 191.5t114 145t144.5 91t161 31.5q88 0 149.5 -33.5t84.5 -99.5l14 70h233l-120 -570q-12 -61 13 -93t58 -32q10 0 37 4.5t57.5 30t58 83t40.5 163.5q16 131 -21 247t-113.5 202t-186 136t-240.5 50t-253 -50t-218.5 -136t-160 -202t-77.5 -247 t21.5 -248t112.5 -203t187.5 -136t241.5 -50q98 0 190.5 28.5t176.5 82.5l49 -70q-96 -61 -203.5 -95t-222.5 -34q-150 0 -276 57.5t-214 155.5t-130 230.5t-25 281.5zM561 702q-25 -117 21.5 -193.5t146.5 -76.5q61 0 118.5 24.5t92.5 65.5l76 361q-16 43 -63.5 66.5 t-106.5 23.5q-49 0 -95 -20.5t-84 -56.5t-66 -85t-40 -109z" />
<glyph unicode="A" horiz-adv-x="1437" d="M2 0l541 1366h346l543 -1366h-342l-101 279h-549l-98 -279h-340zM518 500h395l-196 555z" />
<glyph unicode="B" horiz-adv-x="1355" d="M127 0v1366h711q94 0 169.5 -28.5t128 -78t80 -115t27.5 -138.5q0 -123 -61.5 -198t-155.5 -103q106 -23 175 -106t69 -218q0 -82 -29 -151.5t-81 -121t-127 -80t-167 -28.5h-739zM422 229h377q66 0 118 48.5t52 134.5t-52.5 130t-117.5 44h-377v-357zM422 805h354 q68 0 116 44t48 120q0 78 -48 122t-116 44h-354v-330z" />
<glyph unicode="C" horiz-adv-x="1429" d="M86 682q0 158 57.5 291t156.5 229t233.5 150.5t289.5 54.5q109 0 197 -24.5t157.5 -65.5t123 -96.5t92.5 -116.5l-236 -143q-53 92 -138 146t-196 54q-90 0 -170 -33.5t-139 -95t-93 -150.5t-34 -200t34 -199t93 -150.5t139 -95t170 -32.5q111 0 197 54t139 147l236 -142 q-39 -61 -92.5 -117.5t-123 -97.5t-158.5 -65.5t-198 -24.5q-156 0 -290 54.5t-233 150.5t-156.5 228t-57.5 290z" />
<glyph unicode="D" horiz-adv-x="1478" d="M127 0v1366h551q156 0 288 -49t228 -139.5t150.5 -216t54.5 -279.5t-54.5 -278.5t-150.5 -215t-228 -139.5t-288 -49h-551zM422 242h256q94 0 171 34.5t132 95t85 140.5t30 170q0 92 -29 173t-83 141.5t-132 94t-174 33.5h-256v-882z" />
<glyph unicode="E" horiz-adv-x="1187" d="M127 0v1366h979v-242h-684v-313h670v-231h-670v-336h684v-244h-979z" />
<glyph unicode="F" horiz-adv-x="1161" d="M127 0v1366h979v-242h-684v-313h670v-231h-670v-580h-295z" />
<glyph unicode="G" horiz-adv-x="1486" d="M86 682q0 162 57.5 295t157.5 228t233.5 148.5t286.5 53.5q111 0 202 -24.5t164 -65.5t128 -96.5t92 -116.5l-233 -143q-49 80 -140.5 140t-212.5 60q-90 0 -169 -33.5t-137 -95t-92 -150.5t-34 -200t34 -199t92 -150.5t137 -95t169 -32.5q80 0 160 27.5t131 70.5v205 h-330v225h625v-522q-104 -119 -253.5 -185.5t-332.5 -66.5q-154 0 -287 53.5t-233 148.5t-157.5 228t-57.5 293z" />
<glyph unicode="H" horiz-adv-x="1490" d="M127 0v1366h295v-535h647v535h295v-1366h-295v573h-647v-573h-295z" />
<glyph unicode="I" horiz-adv-x="548" d="M127 0v1366h295v-1366h-295z" />
<glyph unicode="J" horiz-adv-x="993" d="M2 98l131 209q35 -47 91.5 -74.5t123.5 -27.5q100 0 162.5 63.5t62.5 161.5v936h295v-934q0 -113 -35.5 -201t-101 -148t-157 -92t-201.5 -32q-104 0 -201.5 35t-169.5 104z" />
<glyph unicode="K" horiz-adv-x="1310" d="M127 0v1366h295v-596l471 596h377l-551 -643l588 -723h-375l-406 535l-104 -123v-412h-295z" />
<glyph unicode="L" horiz-adv-x="1040" d="M127 0v1366h295v-1124h577v-242h-872z" />
<glyph unicode="M" horiz-adv-x="1734" d="M127 0v1366h410l327 -856l334 856h408v-1366h-293v975l-389 -975h-117l-385 975v-975h-295z" />
<glyph unicode="N" horiz-adv-x="1488" d="M127 0v1366h305l631 -889v889h295v-1366h-279l-659 930v-930h-293z" />
<glyph unicode="O" horiz-adv-x="1609" d="M86 682q0 154 54.5 286t150.5 230t228 153.5t286 55.5t286 -55.5t229 -153.5t151.5 -230t54.5 -286t-54.5 -286t-151.5 -229t-229.5 -152.5t-285.5 -55.5q-154 0 -286 55.5t-228 152.5t-150.5 229t-54.5 286zM387 682q0 -98 28.5 -185t82 -151.5t131.5 -102.5t176 -38 t176 38t131 102.5t82 151.5t29 185t-29 186t-82 152.5t-131 102.5t-176 38t-176 -38t-131.5 -102.5t-82 -152.5t-28.5 -186z" />
<glyph unicode="P" horiz-adv-x="1271" d="M127 0v1366h641q100 0 185 -33t146.5 -90t95.5 -135t34 -168t-32 -168t-92.5 -134t-145.5 -89t-191 -33h-346v-516h-295zM422 741h319q33 0 66 15.5t59.5 41t43 62.5t16.5 80h2q0 43 -16.5 79t-43 62.5t-60.5 41t-67 14.5h-319v-396z" />
<glyph unicode="Q" horiz-adv-x="1609" d="M86 682q0 154 54.5 286t150.5 230t228 153.5t286 55.5t286 -55.5t229 -153.5t151.5 -230t54.5 -286q0 -133 -41 -250t-119 -211l133 -123l-153 -166l-142 144q-170 -117 -399 -117q-154 0 -286 55.5t-228 152.5t-150.5 229t-54.5 286zM387 682q0 -98 28.5 -185t82 -151.5 t131.5 -102.5t176 -38q55 0 107.5 13t93.5 40l-156 141l154 166l149 -145q35 53 52.5 121.5t17.5 140.5q0 98 -29 186t-82 152.5t-131 102.5t-176 38t-176 -38t-131.5 -102.5t-82 -152.5t-28.5 -186z" />
<glyph unicode="R" horiz-adv-x="1312" d="M127 0v1366h641q100 0 185 -31.5t146.5 -87t95.5 -132.5t34 -167q0 -111 -39 -184.5t-91 -120.5t-103.5 -69.5t-77.5 -30.5l321 -543h-344l-281 516h-192v-516h-295zM422 741q88 -4 156 -6q30 0 58 -1h27h25q24 1 38.5 3t16.5 4q35 0 68 15.5t59.5 41t42 62.5t15.5 80 q0 41 -15.5 77t-42 62.5t-59.5 42t-68 15.5h-321v-396z" />
<glyph unicode="S" horiz-adv-x="1286" d="M59 188l174 199q16 -25 52.5 -58.5t86.5 -64.5t110.5 -52.5t125.5 -21.5q55 0 105.5 11.5t87.5 33t58.5 55.5t21.5 79q0 74 -76 121t-236 73q-141 23 -234 66t-148.5 98t-78 121.5t-22.5 138.5q0 84 40 160t110.5 133t168 92t213.5 35q106 0 191.5 -17.5t152 -47 t114.5 -66.5t83 -74l-170 -178q-27 31 -65.5 58.5t-84.5 48t-96.5 33t-99.5 12.5q-45 0 -87 -10.5t-74.5 -31t-52 -52t-19.5 -76.5q0 -68 64.5 -105t205.5 -61q119 -20 215 -52t164.5 -84.5t105.5 -126.5t37 -178q0 -111 -47 -193.5t-127 -137t-185.5 -82t-224.5 -27.5 q-111 0 -198.5 21.5t-156 55.5t-119 75t-85.5 77z" />
<glyph unicode="T" horiz-adv-x="1107" d="M43 1124v242h1026v-242h-367v-1124h-294v1124h-365z" />
<glyph unicode="U" horiz-adv-x="1497" d="M127 524v842h301v-852q0 -59 23.5 -115.5t65.5 -99.5t100.5 -68.5t130.5 -25.5t131 25.5t101 68.5t65.5 99.5t23.5 115.5v852h301v-842q0 -115 -44 -218t-125 -180t-196.5 -122t-256.5 -45t-256 45t-196 122t-125 180.5t-44 217.5z" />
<glyph unicode="V" horiz-adv-x="1433" d="M2 1366h340l375 -1038l373 1038h342l-543 -1366h-346z" />
<glyph unicode="W" horiz-adv-x="1886" d="M2 1366h328l235 -973l252 973h248l252 -973l233 973h332l-391 -1366h-313l-236 911l-237 -911h-314z" />
<glyph unicode="X" horiz-adv-x="1409" d="M2 0l504 700l-473 666h366l303 -457l306 457h366l-475 -664l506 -702h-367l-336 492l-333 -492h-367z" />
<glyph unicode="Y" horiz-adv-x="1361" d="M2 1366h350l328 -537l330 537h348l-533 -803v-563h-293v563z" />
<glyph unicode="Z" horiz-adv-x="1249" d="M86 0v250l694 874h-694v242h1067v-242l-711 -882h725v-242h-1081z" />
<glyph unicode="[" horiz-adv-x="559" d="M94 -205v1778h430v-172h-245v-1434h245v-172h-430z" />
<glyph unicode="\" horiz-adv-x="669" d="M0 1407h184l486 -1448h-185z" />
<glyph unicode="]" horiz-adv-x="559" d="M35 -33h248v1434h-248v172h432v-1778h-432v172z" />
<glyph unicode="^" horiz-adv-x="901" d="M41 682l317 684h187l315 -684h-194l-215 508l-215 -508h-195z" />
<glyph unicode="_" d="M-6 -82h1306v-113h-1306v113z" />
<glyph unicode="`" horiz-adv-x="481" d="M0 1434h221l260 -301h-231z" />
<glyph unicode="a" horiz-adv-x="1157" d="M82 311q0 98 38 163t96 103.5t131 55t140 16.5q39 0 81 -8t81 -24.5t71 -39t48 -53.5v127q0 74 -61.5 126t-153.5 52q-80 0 -160 -31.5t-145 -97.5l-115 154q53 53 112.5 86t121 50.5t119 23.5t102.5 6q92 0 173 -22.5t142.5 -68.5t96 -117t34.5 -167v-645h-266v104 q-16 -31 -48 -55t-71 -40.5t-81 -26t-81 -9.5q-68 0 -140.5 18.5t-130.5 59.5t-96 104.5t-38 155.5zM348 317q0 -49 22.5 -81.5t54.5 -52t69.5 -28t68.5 -8.5q57 0 117.5 26t87.5 73v145q-27 47 -87 71.5t-118 24.5q-31 0 -68.5 -8t-69.5 -27.5t-54.5 -52t-22.5 -82.5z" />
<glyph unicode="b" horiz-adv-x="1216" d="M121 0v1366h266v-500q41 74 120 113t181 39q94 0 176 -36t142.5 -102.5t95.5 -163.5t35 -220t-35 -220.5t-95.5 -164t-142.5 -102.5t-176 -36q-102 0 -181 38t-120 112v-123h-266zM387 291q31 -49 89.5 -77t127.5 -28q57 0 104.5 22.5t81 64.5t53 98.5t19.5 124.5 t-19.5 124t-53 98t-80.5 64.5t-105 22.5q-70 0 -128 -28.5t-89 -76.5v-409z" />
<glyph unicode="c" horiz-adv-x="1056" d="M82 496q0 113 40 209t110.5 165.5t167 108.5t208.5 39q131 0 230.5 -46t175.5 -134l-172 -158q-45 59 -99.5 91t-124.5 32q-57 0 -105 -22.5t-84 -63.5t-55.5 -97.5t-19.5 -123.5q0 -68 19.5 -125.5t55.5 -97.5t84 -62.5t105 -22.5q70 0 124.5 31t99.5 90l172 -155 q-76 -88 -175.5 -134.5t-230.5 -46.5q-113 0 -209 39t-166.5 108.5t-110.5 166t-40 209.5z" />
<glyph unicode="d" horiz-adv-x="1216" d="M82 496q0 121 35 217t95 163.5t142 104.5t174 37q102 0 181 -39t120 -113v500h267v-1366h-267v123q-41 -72 -119.5 -111t-181.5 -39q-92 0 -173 36t-142 102.5t-96 164t-35 220.5zM354 496q0 -68 19.5 -124.5t53.5 -98.5t81 -64.5t104 -22.5q70 0 128.5 28t88.5 77v409 q-31 47 -89 76t-128 29q-57 0 -104 -22.5t-81 -64.5t-53.5 -98.5t-19.5 -123.5z" />
<glyph unicode="e" horiz-adv-x="1189" d="M82 496q0 109 38 203t107.5 165.5t164.5 112.5t208 41q111 0 204 -40t160.5 -109.5t106.5 -166t39 -206.5v-86h-762q20 -98 96 -161t191 -63q31 0 66.5 6.5t72.5 18.5t71 31.5t60 46.5l133 -154q-45 -47 -99 -78.5t-111.5 -50t-111.5 -26t-102 -7.5q-113 0 -210 39 t-168.5 107.5t-112.5 165t-41 211.5zM344 580h522q-6 45 -24.5 88t-50 76.5t-78.5 54t-109 20.5q-57 0 -103 -19.5t-78 -53t-52.5 -76.5t-26.5 -90z" />
<glyph unicode="f" horiz-adv-x="573" d="M-31 793v196h164v82q0 74 27.5 134.5t77 103.5t115 66.5t139.5 23.5q188 0 276 -101l-113 -161q-43 59 -129 59q-53 0 -90 -34t-37 -93v-80h203v-196h-203v-793h-266v793h-164z" />
<glyph unicode="g" horiz-adv-x="1216" d="M80 508q0 121 35 216t96 160.5t143 99.5t174 34q102 0 181 -39t120 -113v123h267v-913q0 -145 -45 -241.5t-118 -154t-164 -81t-183 -23.5q-127 0 -242 37t-219 133l133 180q61 -70 141 -103.5t160 -33.5q45 0 93 11.5t87 39t64.5 73.5t25.5 116v123q-41 -74 -119.5 -113 t-181.5 -39q-92 0 -174 34t-142 98.5t-96 158.5t-36 217zM354 508q0 -135 71 -215t187 -80q70 0 128.5 28.5t88.5 75.5v383q-31 47 -89 75t-128 28q-117 0 -187.5 -80t-70.5 -215z" />
<glyph unicode="h" horiz-adv-x="1177" d="M121 0v1366h266v-492q23 25 53.5 50.5t71.5 46t93 34t118 13.5q162 0 248 -94.5t86 -247.5v-676h-266v606q0 98 -52.5 143.5t-130.5 45.5t-129 -32t-92 -81v-682h-266z" />
<glyph unicode="i" horiz-adv-x="507" d="M96 1268q0 66 46 111.5t112 45.5t112 -45.5t46 -111.5t-46.5 -112t-111.5 -46q-66 0 -112 46t-46 112zM121 0v989h266v-989h-266z" />
<glyph unicode="j" horiz-adv-x="507" d="M-258 -352l98 213q29 -25 64 -37t82 -12q66 0 100.5 36.5t34.5 104.5v1036h266v-1048q0 -76 -23.5 -142.5t-71.5 -116t-121 -78t-171 -28.5q-90 0 -147.5 15.5t-110.5 56.5zM96 1268q0 66 46 111.5t112 45.5t112 -45.5t46 -111.5t-46.5 -112t-111.5 -46q-66 0 -112 46 t-46 112z" />
<glyph unicode="k" horiz-adv-x="1085" d="M121 0v1366h266v-784l336 407h350l-401 -438l413 -551h-344l-243 367l-111 -119v-248h-266z" />
<glyph unicode="l" horiz-adv-x="507" d="M121 0v1366h266v-1366h-266z" />
<glyph unicode="m" horiz-adv-x="1730" d="M121 0v989h266v-115q16 20 44 45t67 46.5t88 37t108 15.5q217 0 281 -180q23 33 54.5 64.5t72.5 57t92 42t111 16.5q145 0 225 -85t80 -251v-682h-267v621q0 84 -36.5 129t-114.5 45q-35 0 -63.5 -11.5t-53 -28t-43 -36t-35.5 -37.5v-682h-266v621q0 84 -36 129t-113 45 q-35 0 -64 -11.5t-53.5 -28t-44 -36t-33.5 -37.5v-682h-266z" />
<glyph unicode="n" horiz-adv-x="1177" d="M121 0v989h266v-115q23 25 53.5 50.5t71.5 46t93 34t118 13.5q162 0 248 -94.5t86 -247.5v-676h-266v606q0 98 -52.5 143.5t-130.5 45.5t-129 -32t-92 -81v-682h-266z" />
<glyph unicode="o" horiz-adv-x="1218" d="M82 496q0 106 37 200.5t106.5 166t166.5 113.5t216 42q121 0 219.5 -42t168 -113.5t106.5 -166t37 -200.5t-37 -200.5t-106.5 -166.5t-167 -114t-218.5 -42t-218 42t-166.5 114t-106.5 166t-37 201zM356 496q0 -137 66.5 -222.5t185.5 -85.5q121 0 188.5 85.5t67.5 222.5 q0 135 -67.5 221t-186.5 86q-121 0 -187.5 -86t-66.5 -221z" />
<glyph unicode="p" horiz-adv-x="1216" d="M121 -395v1384h266v-123q41 74 120 113t181 39q94 0 176 -36t142.5 -102.5t95.5 -163.5t35 -220t-35 -220.5t-95.5 -164t-142.5 -102.5t-176 -36q-102 0 -181 38t-120 112v-518h-266zM387 291q31 -49 89.5 -77t127.5 -28q57 0 104.5 22.5t81 64.5t53 98.5t19.5 124.5 t-19.5 124t-53 98t-80.5 64.5t-105 22.5q-70 0 -128 -28.5t-89 -76.5v-409z" />
<glyph unicode="q" horiz-adv-x="1216" d="M82 496q0 123 35 220t95 163.5t141 102.5t175 36q102 0 181 -39t120 -113v123h267v-1384h-267v518q-41 -72 -119.5 -111t-181.5 -39q-94 0 -175 36t-141 102.5t-95 164t-35 220.5zM354 496q0 -68 19.5 -124.5t53.5 -98.5t81 -64.5t104 -22.5q70 0 128.5 28t88.5 77v409 q-31 47 -89 76t-128 29q-57 0 -104 -22.5t-81 -64.5t-53.5 -98.5t-19.5 -123.5z" />
<glyph unicode="r" horiz-adv-x="741" d="M121 0v989h266v-115q47 53 129 98.5t191 45.5v-254q-33 8 -77 8t-89 -9t-86 -29.5t-68 -51.5v-682h-266z" />
<glyph unicode="s" horiz-adv-x="1017" d="M49 143l137 168q18 -23 50 -47t72 -45.5t84 -35t89 -13.5q80 0 130.5 27.5t50.5 83.5q0 51 -56.5 77.5t-161.5 40.5q-182 23 -274 98.5t-92 219.5q0 66 31.5 121t87 95t131 62.5t166.5 22.5q147 0 245.5 -44t153.5 -97l-121 -154q-31 41 -103.5 73.5t-152.5 32.5 q-70 0 -122 -21.5t-52 -74.5q0 -51 48 -73.5t159 -38.5q197 -27 292 -104t95 -222q0 -74 -31 -133.5t-88 -101.5t-138 -64.5t-181 -22.5q-86 0 -154 14.5t-123 39t-97 55.5t-75 61z" />
<glyph unicode="t" horiz-adv-x="700" d="M4 793v196h164v271h266v-271h203v-196h-203v-494q0 -45 22.5 -78t69.5 -33q41 0 63.5 12.5t33.5 24.5l79 -194q-35 -27 -86 -46.5t-149 -19.5q-80 0 -136.5 22.5t-93 62.5t-53 93.5t-16.5 116.5v533h-164z" />
<glyph unicode="u" horiz-adv-x="1177" d="M121 313v676h266v-606q0 -98 52.5 -143t129.5 -45q78 0 129.5 32.5t92.5 79.5v682h266v-989h-266v117q-23 -25 -53.5 -50.5t-71.5 -46t-93.5 -34t-117.5 -13.5q-162 0 -248 93.5t-86 246.5z" />
<glyph unicode="v" horiz-adv-x="1089" d="M0 989h287l258 -729l258 729h287l-400 -989h-291z" />
<glyph unicode="w" horiz-adv-x="1611" d="M8 989h277l182 -688l225 688h228l223 -688l182 688h279l-304 -989h-284l-211 655l-211 -655h-283z" />
<glyph unicode="x" horiz-adv-x="1095" d="M25 0l358 508l-338 481h301l203 -323l201 323h301l-338 -481l360 -508h-301l-223 354l-225 -354h-299z" />
<glyph unicode="y" horiz-adv-x="1089" d="M0 989h287l258 -729l258 729h287l-465 -1145q-37 -90 -82 -143t-102.5 -81t-127 -36t-153.5 -8v234q104 0 152 26.5t71 79.5q6 10 10 21.5t8 19.5l9 18z" />
<glyph unicode="z" horiz-adv-x="980" d="M82 0v209l502 584h-502v196h813v-196l-514 -594h522v-199h-821z" />
<glyph unicode="{" horiz-adv-x="581" d="M10 608v152q53 0 79 37t26 94v364q0 68 22.5 125.5t63.5 100.5t97 67.5t122 24.5h125v-172h-123q-51 0 -87 -39t-36 -107v-385q0 -66 -21.5 -114.5t-72.5 -71.5q51 -23 72.5 -72t21.5 -114v-385q0 -68 36 -107t87 -39h123v-172h-125q-66 0 -122 24.5t-97 67.5 t-63.5 100.5t-22.5 125.5v364q0 57 -26 94t-79 37z" />
<glyph unicode="|" horiz-adv-x="436" d="M127 -41v1448h184v-1448h-184z" />
<glyph unicode="}" horiz-adv-x="581" d="M35 -33h123q53 0 88 39t35 107v385q0 66 22.5 115t73.5 71q-51 23 -72.5 72t-21.5 114v385q0 68 -36 107t-87 39h-125v172h125q68 0 123 -24.5t96 -67.5t63.5 -100.5t22.5 -125.5v-364q0 -57 26.5 -94t79.5 -37v-152q-53 0 -78.5 -36.5t-25.5 -94.5v-364 q0 -68 -22.5 -125.5t-63.5 -100.5t-97.5 -67.5t-123.5 -24.5h-125v172z" />
<glyph unicode="~" horiz-adv-x="1193" d="M53 920q6 76 35 156.5t72 147t97 109.5t116 43q55 0 97 -17.5t75 -45t57.5 -61t46.5 -68.5q49 -74 81 -113t77 -39q23 0 48.5 20.5t50 62.5t46 104.5t31.5 146.5l156 -39q-6 -76 -34 -156.5t-71 -146.5t-97 -109t-116 -43q-55 0 -97 16.5t-75 44.5t-58.5 61.5t-47.5 68.5 q-47 72 -80 111.5t-76 39.5q-20 0 -47 -20t-51.5 -61t-46 -103.5t-31.5 -146.5z" />
<glyph unicode="&#xa1;" horiz-adv-x="512" d="M80 836q0 37 14.5 68.5t38 56t55 38t68.5 13.5t68.5 -13.5t55 -38t38 -56t14.5 -68.5t-14.5 -69t-38 -55.5t-55 -36.5t-68.5 -13t-68.5 13t-55 36.5t-38 55.5t-14.5 69zM92 -367l49 922h230l47 -922h-326z" />
<glyph unicode="&#xa2;" horiz-adv-x="1056" d="M82 496q0 100 31.5 188t90 155.5t138.5 111.5t176 59v155h184v-155q188 -27 312 -172l-154 -154q-68 88 -162 119v-617q94 31 162 119l154 -153q-123 -141 -312 -172v-187h-184v187q-96 14 -176 59t-138.5 112.5t-90 155.5t-31.5 189zM326 496q0 -117 53 -199t143 -107 v611q-90 -27 -143 -108t-53 -197z" />
<glyph unicode="&#xa3;" horiz-adv-x="1105" d="M45 496v166h172q-20 33 -41.5 64.5t-40 66t-30 76.5t-11.5 98q0 96 46 175t118 136t161 89t175 32q168 0 280.5 -50.5t172.5 -177.5l-232 -118q-27 63 -77 89.5t-120 26.5q-33 0 -68.5 -11t-64 -33.5t-48 -56.5t-19.5 -81q0 -63 13 -106t32.5 -78t40 -66.5t35.5 -74.5 h258v-166h-246q-2 -10 -3 -20.5t-1 -20.5q-10 -70 -39 -109t-70 -74q31 10 51.5 13.5t49.5 3.5q45 0 78.5 -11.5t63.5 -23.5t59.5 -23.5t64.5 -11.5q47 0 94 21.5t70 56.5l123 -223q-53 -53 -129 -78t-168 -25q-66 0 -116 14.5t-93 32t-83 31.5t-87 14q-72 0 -128.5 -24.5 t-101.5 -52.5l-102 213q109 47 159 103t50 136q0 16 -1 29.5t-3 28.5h-244z" />
<glyph unicode="&#xa4;" horiz-adv-x="1429" d="M33 414v164h59q-6 53 -6 104q0 55 6 104h-59v164h100q39 104 106.5 188.5t157.5 143.5t199 92t227 33q109 0 197 -24.5t157.5 -65.5t123 -96.5t92.5 -116.5l-236 -143q-53 92 -138 146t-196 54q-117 0 -214 -55t-154 -156h503v-164h-563q-4 -25 -6 -50t-2 -54t2 -54.5 t6 -49.5h563v-164h-503q57 -100 154.5 -154.5t213.5 -54.5q111 0 197 54t139 147l236 -142q-39 -61 -92.5 -117.5t-123 -97.5t-158.5 -65.5t-198 -24.5q-119 0 -227.5 33t-198.5 92t-157.5 143t-106.5 187h-100z" />
<glyph unicode="&#xa5;" horiz-adv-x="1361" d="M2 1366h350l330 -537l328 537h348l-357 -535h201v-163h-307l-70 -105v-82h377v-164h-377v-317h-293v317h-364v164h364v82l-67 105h-297v163h188z" />
<glyph unicode="&#xa6;" horiz-adv-x="436" d="M127 -41v651h184v-651h-184zM127 756v651h184v-651h-184z" />
<glyph unicode="&#xa7;" horiz-adv-x="1103" d="M29 475q0 70 20.5 129.5t56 106.5t84 81.5t101.5 57.5q-88 41 -127 105.5t-39 156.5q0 66 31.5 121t87 95t131.5 62.5t166 22.5q145 0 243.5 -43t153.5 -98l-119 -154q-33 41 -104.5 74t-151.5 33q-70 0 -122 -21.5t-52 -75.5q0 -51 48 -71.5t159 -38.5q80 -14 165 -41 t154.5 -78t114.5 -133t45 -205q0 -68 -22.5 -126t-58.5 -106t-82 -87t-93 -66q82 -41 123 -105.5t41 -158.5q0 -150 -117.5 -237t-320.5 -87q-86 0 -154.5 14.5t-123 39t-96.5 55.5t-77 61l139 168q18 -23 50 -47t71 -44.5t84 -34t88 -13.5q82 0 132.5 26.5t50.5 82.5 q0 51 -56.5 75.5t-163.5 42.5q-80 14 -161.5 51t-148 95.5t-108.5 137.5t-42 177zM266 508q0 -45 22.5 -89t65.5 -81t104.5 -63.5t137.5 -36.5q10 -2 24.5 -4.5t22.5 -4.5q80 35 136.5 100.5t56.5 159.5q0 129 -92.5 207t-254.5 99l-10 2q-63 -16 -104 -48t-65.5 -71 t-34 -83t-9.5 -87z" />
<glyph unicode="&#xa8;" horiz-adv-x="718" d="M18 1319q0 55 39 95t97 40q57 0 96 -40t39 -95q0 -57 -39 -97t-96 -40t-96.5 40t-39.5 97zM430 1319q0 55 39 95t96 40t96 -40t39 -95q0 -57 -38.5 -97t-96.5 -40q-57 0 -96 40t-39 97z" />
<glyph unicode="&#xa9;" horiz-adv-x="1593" d="M72 682q0 152 57 284t155.5 230t230.5 155.5t282 57.5q152 0 283.5 -57.5t230 -155.5t155 -230t56.5 -284q0 -150 -56.5 -282t-155 -230t-230.5 -155.5t-283 -57.5q-150 0 -282 57.5t-230.5 155.5t-155.5 230t-57 282zM162 682q0 -131 50 -247t136 -202t202 -136t247 -50 q133 0 248.5 50t201.5 136t136.5 202t50.5 247q0 133 -50.5 249t-136.5 202t-201.5 135t-248.5 49q-131 0 -247 -49t-202 -135t-136 -202t-50 -249zM358 682q0 96 35 177t94.5 139.5t139.5 91t170 32.5q98 0 179 -39t136 -104l-78 -78q-41 55 -102.5 88t-134.5 33 q-68 0 -126.5 -25.5t-101.5 -70.5t-68.5 -107.5t-25.5 -136.5t25.5 -136.5t68.5 -107.5t101.5 -70.5t126.5 -25.5q76 0 137 34t102 89l80 -76q-57 -66 -139 -106.5t-180 -40.5q-90 0 -170 32.5t-139.5 91t-94.5 139.5t-35 177z" />
<glyph unicode="&#xaa;" horiz-adv-x="673" d="M86 995q0 53 20.5 89t53.5 57.5t72.5 31t76.5 9.5q43 0 89 -17.5t65 -52.5v72q0 41 -34 68.5t-83 27.5q-45 0 -89 -16.5t-79 -53.5l-63 84q29 29 61.5 47.5t66 27.5t65.5 12t57 3q51 0 95 -12t77.5 -36.5t53 -63.5t19.5 -92v-355h-147v58q-18 -35 -64.5 -53.5 t-89.5 -18.5q-37 0 -76.5 10t-72.5 31.5t-53.5 57.5t-20.5 85zM117 631v82h491v-82h-491zM233 999q0 -27 12.5 -44t30 -28.5t38 -15.5t36.5 -4q33 0 66 13.5t47 40.5v79q-14 27 -47 40.5t-66 13.5q-16 0 -36.5 -4.5t-38 -15.5t-30 -28.5t-12.5 -46.5z" />
<glyph unicode="&#xab;" horiz-adv-x="983" d="M0 498l328 362h245l-327 -362l327 -369h-245zM410 498l327 362h246l-328 -362l328 -369h-246z" />
<glyph unicode="&#xac;" horiz-adv-x="1191" d="M96 432v307h549l-24 265l575 -418l-575 -420l24 266h-549z" />
<glyph unicode="&#xad;" horiz-adv-x="614" d="M61 377v235h492v-235h-492z" />
<glyph unicode="&#xae;" horiz-adv-x="1593" d="M72 682q0 152 57 284t155.5 230t230.5 155.5t282 57.5q152 0 283.5 -57.5t230 -155.5t155 -230t56.5 -284q0 -150 -56.5 -282t-155 -230t-230.5 -155.5t-283 -57.5q-150 0 -282 57.5t-230.5 155.5t-155.5 230t-57 282zM162 682q0 -131 50 -247t136 -202t202 -136t247 -50 q133 0 248.5 50t201.5 136t136.5 202t50.5 247q0 133 -50.5 249t-136.5 202t-201.5 135t-248.5 49q-131 0 -247 -49t-202 -135t-136 -202t-50 -249zM516 268v830h340q51 0 99.5 -18.5t85 -51.5t58 -79t21.5 -103q0 -70 -25.5 -117t-61.5 -75.5t-70.5 -42t-53.5 -13.5 l224 -330h-142l-215 328h-147v-328h-113zM629 696h227q27 0 53.5 11.5t47 32t34 47t13.5 59.5q0 35 -13.5 62.5t-34 48t-47 31.5t-53.5 11h-227v-303z" />
<glyph unicode="&#xaf;" horiz-adv-x="811" d="M33 1208v164h743v-164h-743z" />
<glyph unicode="&#xb0;" horiz-adv-x="626" d="M41 1135q0 55 21.5 105t58.5 87t87 58.5t105 21.5t105.5 -21.5t87.5 -58.5t58.5 -87t21.5 -105t-21.5 -105.5t-58.5 -87.5t-87 -58.5t-106 -21.5q-55 0 -105 21.5t-87 58.5t-58.5 87t-21.5 106zM178 1135q0 -55 40 -95.5t95 -40.5t95.5 40.5t40.5 95.5t-40 95t-96 40 q-55 0 -95 -40t-40 -95z" />
<glyph unicode="&#xb1;" horiz-adv-x="804" d="M0 948l422 418h254v-1366h-297v979l-199 -213z" />
<glyph unicode="&#xb2;" horiz-adv-x="731" d="M55 1260q18 27 52 49t76 39.5t90.5 26.5t95.5 9q141 0 221 -63.5t80 -177.5q0 -41 -14.5 -78t-38 -68.5t-51 -58.5t-54.5 -47q-41 -31 -80 -60.5t-67 -54.5q-35 -29 -66 -55h377v-139h-610v125q41 37 90 77q41 35 93 79t111 89q63 49 101.5 91t38.5 85q0 61 -42 90 t-102 29q-66 0 -121 -29.5t-81 -68.5z" />
<glyph unicode="&#xb3;" horiz-adv-x="708" d="M31 696l94 113q35 -47 90 -77t129 -30t111 33t37 74q0 43 -24 65.5t-60.5 33t-84 11.5t-94.5 -4v136q109 -6 179.5 12t70.5 88q0 49 -41 72.5t-100 23.5q-66 0 -122 -29.5t-83 -68.5l-92 108q47 59 128 93t175 34q63 0 118.5 -12t96.5 -38.5t64.5 -67.5t23.5 -97 q0 -33 -12 -63.5t-36 -55t-55.5 -42t-68.5 -21.5q86 -10 135 -61t49 -129q0 -106 -83.5 -169t-231.5 -63q-106 0 -183 34t-130 97z" />
<glyph unicode="&#xb4;" horiz-adv-x="481" d="M0 1133l260 301h221l-250 -301h-231z" />
<glyph unicode="&#xb5;" horiz-adv-x="1540" d="M-4 862h594l182 565l184 -565h594l-481 -350l184 -563l-481 348l-479 -348l182 563z" />
<glyph unicode="&#xb6;" horiz-adv-x="919" d="M55 1221q0 74 28 137t76 111.5t111.5 76t137.5 27.5h374v-1778h-112v1667h-150v-1667h-112v1073q-74 0 -137.5 28t-111.5 76t-76 111.5t-28 137.5z" />
<glyph unicode="&#xb7;" horiz-adv-x="512" d="M82 707q0 37 13.5 68.5t37 55t55 38t68.5 14.5t68.5 -14.5t55 -38t38 -55t14.5 -68.5t-14.5 -69t-38 -55.5t-55 -38t-68.5 -14.5t-68.5 14.5t-55 38t-37 55.5t-13.5 69z" />
<glyph unicode="&#xb8;" horiz-adv-x="473" d="M0 -319l51 114q41 -31 83 -48t77 -17q61 0 81.5 18.5t20.5 36.5q0 37 -35.5 45t-66.5 -20l-102 49l61 164l133 -7l-43 -114q31 14 68 14t68.5 -15.5t54 -46t22.5 -77.5q0 -66 -64.5 -113t-175.5 -47q-88 0 -147 21.5t-86 42.5z" />
<glyph unicode="&#xb9;" horiz-adv-x="643" d="M90 1128l240 238h145v-778h-170v557l-112 -121z" />
<glyph unicode="&#xba;" horiz-adv-x="684" d="M66 1102q0 59 20 110.5t58 91t92.5 62.5t119.5 23q66 0 120 -23t92 -62.5t58.5 -91t20.5 -110.5q0 -57 -20.5 -109.5t-58.5 -92.5t-92 -62.5t-120 -22.5t-120 22.5t-92 62.5t-58 92t-20 110zM96 631v82h531v-82h-531zM217 1102q0 -76 37 -123t102 -47q66 0 103 47t37 123 q0 74 -37 121t-103 47t-102.5 -47t-36.5 -121z" />
<glyph unicode="&#xbb;" horiz-adv-x="980" d="M0 129l328 369l-328 362h246l327 -362l-327 -369h-246zM410 129l327 369l-327 362h245l328 -362l-328 -369h-245z" />
<glyph unicode="&#xbc;" horiz-adv-x="1513" d="M33 1128l239 238h146v-778h-170v557l-113 -121zM145 0l875 1366h199l-873 -1366h-201zM784 166v125l320 487h235v-475h101v-137h-101v-164h-168v164h-387zM961 303h210v328z" />
<glyph unicode="&#xbd;" horiz-adv-x="1583" d="M33 1128l239 238h146v-778h-170v557l-113 -121zM147 0l875 1366h199l-873 -1366h-201zM872 672q18 27 52 49t76 39.5t89.5 27t94.5 9.5q141 0 220 -63.5t79 -176.5q0 -41 -14.5 -78t-38 -68.5t-51 -58t-54.5 -45.5q-41 -31 -79 -60.5t-66 -53.5q-35 -29 -66 -54h375v-137 h-606v123q41 39 88 78q41 35 93 78t110 86q66 49 102.5 91t36.5 85q0 59 -41 87.5t-101 28.5q-66 0 -120 -29.5t-80 -68.5z" />
<glyph unicode="&#xbe;" horiz-adv-x="1665" d="M41 696l94 113q35 -47 91.5 -77t129.5 -30q74 0 110 33t36 74q0 43 -23.5 65.5t-60.5 33t-84 11.5t-94 -4v136q109 -6 179 12t70 88q0 49 -39.5 72.5t-101.5 23.5q-66 0 -122 -29.5t-83 -68.5l-90 108q45 59 126 93t177 34q63 0 117.5 -12t95.5 -38.5t64.5 -67.5 t23.5 -97q0 -33 -12 -63.5t-35.5 -55t-54.5 -42t-68 -21.5q86 -10 134.5 -61t48.5 -129q0 -106 -83 -169t-231 -63q-109 0 -184.5 34t-130.5 97zM330 0l874 1366h201l-875 -1366h-200zM954 166v125l320 487h235v-475h101v-137h-101v-164h-168v164h-387zM1130 303h211v328z " />
<glyph unicode="&#xbf;" horiz-adv-x="931" d="M53 -63q0 66 17.5 113.5t51.5 87.5t82 74t109 67q31 16 49.5 40.5t22.5 52t-3 54.5t-30 45l199 123q59 -51 80.5 -113.5t13.5 -124t-44 -115t-89 -85.5q-57 -35 -95 -60.5t-59.5 -49t-30 -46.5t-8.5 -51q0 -61 51.5 -94t129.5 -33q88 0 145 32.5t109 92.5l157 -183 q-39 -35 -81 -66.5t-93 -54t-113.5 -36t-140.5 -13.5q-92 0 -171 25t-136 70t-90 108.5t-33 139.5zM319 838q0 74 51.5 125t123.5 51q37 0 68.5 -13.5t55 -38t38 -56t14.5 -68.5t-14.5 -69t-38 -55.5t-55.5 -36.5t-68 -13q-72 0 -123.5 51t-51.5 123z" />
<glyph unicode="&#xc0;" horiz-adv-x="1437" d="M2 0l541 1366h346l543 -1366h-342l-101 279h-549l-98 -279h-340zM471 1800h221l260 -301h-231zM518 500h395l-196 555z" />
<glyph unicode="&#xc1;" horiz-adv-x="1437" d="M2 0l541 1366h346l543 -1366h-342l-101 279h-549l-98 -279h-340zM475 1499l260 301h221l-251 -301h-230zM518 500h395l-196 555z" />
<glyph unicode="&#xc2;" horiz-adv-x="1437" d="M2 0l541 1366h346l543 -1366h-342l-101 279h-549l-98 -279h-340zM442 1495l183 301h188l174 -301h-194l-76 160l-80 -160h-195zM518 500h395l-196 555z" />
<glyph unicode="&#xc3;" horiz-adv-x="1437" d="M2 0l541 1366h346l543 -1366h-342l-101 279h-549l-98 -279h-340zM303 1511q4 41 23.5 92.5t52.5 95.5t79 73.5t103 29.5q72 0 114 -25.5t77 -66.5q31 -35 48 -51.5t50 -16.5q53 0 77.5 41t39.5 119l157 -33q-4 -41 -24.5 -92t-55 -95t-82 -73.5t-104.5 -29.5 q-72 0 -109.5 25.5t-72.5 66.5q-31 35 -48.5 51t-49.5 16q-53 0 -78 -41t-39 -118zM518 500h395l-196 555z" />
<glyph unicode="&#xc4;" horiz-adv-x="1437" d="M2 0l541 1366h346l543 -1366h-342l-101 279h-549l-98 -279h-340zM377 1614q0 57 40 96t97 39q55 0 95 -39t40 -96t-40 -96t-95 -39q-57 0 -97 38.5t-40 96.5zM518 500h395l-196 555zM788 1614q0 57 40 96t98 39q55 0 95 -39t40 -96t-40 -96t-95 -39q-57 0 -97.5 38.5 t-40.5 96.5z" />
<glyph unicode="&#xc5;" horiz-adv-x="1437" d="M2 0l541 1366h346l543 -1366h-342l-101 279h-549l-98 -279h-340zM510 1655q0 84 55.5 143.5t149.5 59.5q92 0 148.5 -59.5t56.5 -143.5q0 -82 -56.5 -141.5t-148.5 -59.5q-94 0 -149.5 59.5t-55.5 141.5zM518 500h395l-196 555zM616 1655q0 -53 26 -86t73 -33t72.5 33 t25.5 86t-25.5 86t-72.5 33t-73 -33t-26 -86z" />
<glyph unicode="&#xc6;" horiz-adv-x="2019" d="M-10 0l846 1366h1101v-242h-684v-313h670v-229h-670v-338h684v-244h-979v279h-448l-162 -279h-358zM635 500h323v553z" />
<glyph unicode="&#xc7;" horiz-adv-x="1429" d="M86 682q0 158 57.5 291t156.5 229t233.5 150.5t289.5 54.5q109 0 197 -24.5t157.5 -65.5t123 -96.5t92.5 -116.5l-236 -143q-53 92 -138 146t-196 54q-90 0 -170 -33.5t-139 -95t-93 -150.5t-34 -200t34 -199t93 -150.5t139 -95t170 -32.5q111 0 197 54t139 147l236 -142 q-39 -61 -92.5 -117.5t-123 -97.5t-158.5 -65.5t-198 -24.5q-156 0 -290 54.5t-233 150.5t-156.5 228t-57.5 290zM559 -338l51 115q41 -31 83 -48.5t77 -17.5q61 0 81.5 18.5t20.5 37.5q0 37 -35.5 45t-66.5 -21l-102 49l61 164l133 -6l-43 -115q31 14 68 14.5t68.5 -14 t54 -45.5t22.5 -78q0 -66 -64.5 -113.5t-174.5 -47.5q-88 0 -147.5 21.5t-86.5 41.5z" />
<glyph unicode="&#xc8;" horiz-adv-x="1187" d="M127 0v1366h979v-242h-684v-313h670v-231h-670v-336h684v-244h-979zM365 1800h221l262 -301h-232z" />
<glyph unicode="&#xc9;" horiz-adv-x="1187" d="M127 0v1366h979v-242h-684v-313h670v-231h-670v-336h684v-244h-979zM360 1493l263 301h219l-250 -301h-232z" />
<glyph unicode="&#xca;" horiz-adv-x="1187" d="M127 0v1366h979v-242h-684v-313h670v-231h-670v-336h684v-244h-979zM342 1495l180 301h189l174 -301h-195l-76 160l-79 -160h-193z" />
<glyph unicode="&#xcb;" horiz-adv-x="1187" d="M127 0v1366h979v-242h-684v-313h670v-231h-670v-336h684v-244h-979zM270 1628q0 57 40 96t98 39q55 0 95 -39t40 -96q0 -55 -40 -95t-95 -40q-57 0 -97.5 40t-40.5 95zM682 1628q0 57 40 96t97 39q55 0 95 -39t40 -96q0 -55 -40 -95t-95 -40q-57 0 -97 40t-40 95z" />
<glyph unicode="&#xcc;" horiz-adv-x="548" d="M33 1800h221l262 -301h-231zM127 0v1366h295v-1366h-295z" />
<glyph unicode="&#xcd;" horiz-adv-x="548" d="M31 1503l262 301h219l-250 -301h-231zM127 0v1366h295v-1366h-295z" />
<glyph unicode="&#xce;" horiz-adv-x="548" d="M-2 1495l182 301h189l174 -301h-195l-76 160l-79 -160h-195zM127 0v1366h295v-1366h-295z" />
<glyph unicode="&#xcf;" horiz-adv-x="548" d="M-68 1628q0 57 40 96t96 39q57 0 97 -39t40 -96t-40 -96t-97 -39q-55 0 -95.5 39t-40.5 96zM127 0v1366h295v-1366h-295zM344 1628q0 57 40 96t95 39q57 0 96 -39t39 -96t-38.5 -96t-96.5 -39q-55 0 -95 39t-40 96z" />
<glyph unicode="&#xd0;" horiz-adv-x="1478" d="M0 623v159h127v584h551q156 0 288 -49t228 -139.5t150.5 -216t54.5 -279.5t-54.5 -278.5t-150.5 -215t-228 -139.5t-288 -49h-551v623h-127zM422 242h256q94 0 171 34.5t132 95t85 140.5t30 170q0 92 -29 173t-83 141.5t-132 94t-174 33.5h-256v-342h151v-159h-151v-381z " />
<glyph unicode="&#xd1;" horiz-adv-x="1488" d="M127 0v1366h305l631 -889v889h295v-1366h-279l-659 930v-930h-293zM322 1516q4 41 23.5 92t53 95t79.5 73.5t104 29.5q72 0 112.5 -25.5t75.5 -66.5q31 -35 48.5 -51t49.5 -16q53 0 78 41t39 118l160 -34q-6 -41 -26.5 -91.5t-54.5 -94.5t-81 -73.5t-104 -29.5 q-74 0 -112 24.5t-73 65.5q-31 37 -47 53t-51 16q-53 0 -76.5 -41.5t-40.5 -119.5z" />
<glyph unicode="&#xd2;" horiz-adv-x="1609" d="M86 682q0 154 54.5 286t150.5 230t228 153.5t286 55.5t286 -55.5t229 -153.5t151.5 -230t54.5 -286t-54.5 -286t-151.5 -229t-229.5 -152.5t-285.5 -55.5q-154 0 -286 55.5t-228 152.5t-150.5 229t-54.5 286zM387 682q0 -98 28.5 -185t82 -151.5t131.5 -102.5t176 -38 t176 38t131 102.5t82 151.5t29 185t-29 186t-82 152.5t-131 102.5t-176 38t-176 -38t-131.5 -102.5t-82 -152.5t-28.5 -186zM543 1800h221l260 -301h-231z" />
<glyph unicode="&#xd3;" horiz-adv-x="1609" d="M86 682q0 154 54.5 286t150.5 230t228 153.5t286 55.5t286 -55.5t229 -153.5t151.5 -230t54.5 -286t-54.5 -286t-151.5 -229t-229.5 -152.5t-285.5 -55.5q-154 0 -286 55.5t-228 152.5t-150.5 229t-54.5 286zM387 682q0 -98 28.5 -185t82 -151.5t131.5 -102.5t176 -38 t176 38t131 102.5t82 151.5t29 185t-29 186t-82 152.5t-131 102.5t-176 38t-176 -38t-131.5 -102.5t-82 -152.5t-28.5 -186zM555 1499l262 303h219l-250 -303h-231z" />
<glyph unicode="&#xd4;" horiz-adv-x="1609" d="M86 682q0 154 54.5 286t150.5 230t228 153.5t286 55.5t286 -55.5t229 -153.5t151.5 -230t54.5 -286t-54.5 -286t-151.5 -229t-229.5 -152.5t-285.5 -55.5q-154 0 -286 55.5t-228 152.5t-150.5 229t-54.5 286zM387 682q0 -98 28.5 -185t82 -151.5t131.5 -102.5t176 -38 t176 38t131 102.5t82 151.5t29 185t-29 186t-82 152.5t-131 102.5t-176 38t-176 -38t-131.5 -102.5t-82 -152.5t-28.5 -186zM518 1497l182 301h187l174 -301h-195l-75 160l-80 -160h-193z" />
<glyph unicode="&#xd5;" horiz-adv-x="1609" d="M86 682q0 154 54.5 286t150.5 230t228 153.5t286 55.5t286 -55.5t229 -153.5t151.5 -230t54.5 -286t-54.5 -286t-151.5 -229t-229.5 -152.5t-285.5 -55.5q-154 0 -286 55.5t-228 152.5t-150.5 229t-54.5 286zM387 682q0 -98 28.5 -185t82 -151.5t131.5 -102.5t176 -38 t176 38t131 102.5t82 151.5t29 185t-29 186t-82 152.5t-131 102.5t-176 38t-176 -38t-131.5 -102.5t-82 -152.5t-28.5 -186zM393 1524q4 41 23.5 91t52.5 94t79 73.5t103 29.5q74 0 115 -24.5t76 -65.5q31 -37 48 -53t50 -16q53 0 77.5 42t39.5 120l157 -35 q-4 -41 -24.5 -92.5t-55 -95.5t-80.5 -73.5t-104 -29.5q-74 0 -111.5 25.5t-72.5 66.5q-31 35 -48.5 51.5t-49.5 16.5q-53 0 -78 -41t-39 -119z" />
<glyph unicode="&#xd6;" horiz-adv-x="1609" d="M86 682q0 154 54.5 286t150.5 230t228 153.5t286 55.5t286 -55.5t229 -153.5t151.5 -230t54.5 -286t-54.5 -286t-151.5 -229t-229.5 -152.5t-285.5 -55.5q-154 0 -286 55.5t-228 152.5t-150.5 229t-54.5 286zM387 682q0 -98 28.5 -185t82 -151.5t131.5 -102.5t176 -38 t176 38t131 102.5t82 151.5t29 185t-29 186t-82 152.5t-131 102.5t-176 38t-176 -38t-131.5 -102.5t-82 -152.5t-28.5 -186zM461 1638q0 57 39 97.5t96 40.5t96 -40.5t39 -97.5q0 -55 -39 -95t-96 -40t-96 40t-39 95zM872 1638q0 57 39 97.5t97 40.5q57 0 96 -40.5t39 -97.5 q0 -55 -39 -95t-96 -40t-96.5 40t-39.5 95z" />
<glyph unicode="&#xd7;" horiz-adv-x="1046" d="M109 780l129 129l284 -284l275 274l125 -125l-275 -274l291 -291l-129 -129l-291 291l-274 -275l-125 125l274 275z" />
<glyph unicode="&#xd8;" horiz-adv-x="1611" d="M86 682q0 154 54.5 286t151.5 230t229 153.5t286 55.5q98 0 185 -23.5t165 -64.5l35 47h201l-107 -137q113 -98 176.5 -238.5t63.5 -308.5q0 -154 -54.5 -286t-151.5 -229t-228 -152.5t-285 -55.5q-109 0 -205 27.5t-180 76.5l-47 -63h-201l125 162q-100 98 -156.5 231 t-56.5 289zM389 682q0 -86 23.5 -159.5t66.5 -131.5l518 725q-86 45 -190 45q-98 0 -176 -38t-131.5 -102.5t-82 -152.5t-28.5 -186zM582 268q98 -63 225 -63q98 0 176 38t131 102.5t82 151.5t29 185t-30 181t-83 145z" />
<glyph unicode="&#xd9;" horiz-adv-x="1497" d="M127 524v842h301v-852q0 -59 23.5 -115.5t65.5 -99.5t100.5 -68.5t130.5 -25.5t131 25.5t101 68.5t65.5 99.5t23.5 115.5v852h301v-842q0 -115 -44 -218t-125 -180t-196.5 -122t-256.5 -45t-256 45t-196 122t-125 180.5t-44 217.5zM512 1802h221l260 -301h-231z" />
<glyph unicode="&#xda;" horiz-adv-x="1497" d="M127 524v842h301v-852q0 -59 23.5 -115.5t65.5 -99.5t100.5 -68.5t130.5 -25.5t131 25.5t101 68.5t65.5 99.5t23.5 115.5v852h301v-842q0 -115 -44 -218t-125 -180t-196.5 -122t-256.5 -45t-256 45t-196 122t-125 180.5t-44 217.5zM506 1499l260 301h221l-250 -301h-231z " />
<glyph unicode="&#xdb;" horiz-adv-x="1497" d="M127 524v842h301v-852q0 -59 23.5 -115.5t65.5 -99.5t100.5 -68.5t130.5 -25.5t131 25.5t101 68.5t65.5 99.5t23.5 115.5v852h301v-842q0 -115 -44 -218t-125 -180t-196.5 -122t-256.5 -45t-256 45t-196 122t-125 180.5t-44 217.5zM469 1497l182 303h189l172 -303h-195 l-74 160l-79 -160h-195z" />
<glyph unicode="&#xdc;" horiz-adv-x="1497" d="M127 524v842h301v-852q0 -59 23.5 -115.5t65.5 -99.5t100.5 -68.5t130.5 -25.5t131 25.5t101 68.5t65.5 99.5t23.5 115.5v852h301v-842q0 -115 -44 -218t-125 -180t-196.5 -122t-256.5 -45t-256 45t-196 122t-125 180.5t-44 217.5zM408 1628q0 57 39.5 97t95.5 40 q57 0 97 -40t40 -97q0 -55 -40 -95t-97 -40q-55 0 -95 40t-40 95zM819 1628q0 57 40 97t95 40q57 0 97.5 -40t40.5 -97q0 -55 -40 -95t-98 -40q-55 0 -95 40t-40 95z" />
<glyph unicode="&#xdd;" horiz-adv-x="1361" d="M2 1366h350l328 -537l330 537h348l-533 -803v-563h-293v563zM434 1489l260 301h221l-249 -301h-232z" />
<glyph unicode="&#xde;" horiz-adv-x="1271" d="M127 0v1366h295v-229h346q100 0 185 -33t146.5 -90.5t95.5 -135t34 -167.5t-32 -168t-92.5 -134.5t-145.5 -89t-191 -32.5h-346v-287h-295zM422 512h319q33 0 66 15.5t59.5 41t43 62.5t16.5 80h2q0 43 -16.5 79.5t-43 62.5t-60.5 41t-67 15h-319v-397z" />
<glyph unicode="&#xdf;" horiz-adv-x="1380" d="M121 0v1032q0 78 31.5 144.5t92 115.5t144.5 78t189 29q98 0 171.5 -25.5t125 -68.5t77 -102.5t25.5 -127.5q0 -53 -14.5 -94t-39 -72.5t-57 -56.5t-69.5 -47q-20 -12 -32.5 -29.5t-12.5 -42.5q0 -53 48 -74.5t158 -37.5q182 -27 270.5 -104t88.5 -222q0 -74 -34 -134.5 t-93.5 -101.5t-138 -63.5t-170.5 -22.5q-80 0 -143.5 14.5t-114 39t-91 55.5t-73.5 61l137 168q18 -23 48 -47t64.5 -45.5t74.5 -35t79 -13.5q72 0 125 27.5t53 83.5q0 94 -188 118q-180 25 -272.5 100.5t-92.5 217.5q0 72 36 127t98 92q53 35 84.5 63.5t31.5 69.5 q0 23 -8 45.5t-28.5 41t-52.5 29.5t-81 11q-27 0 -57.5 -10t-58 -29.5t-46 -50.5t-18.5 -74v-1032h-266z" />
<glyph unicode="&#xe0;" horiz-adv-x="1157" d="M82 311q0 98 38 163t96 103.5t131 55t140 16.5q39 0 81 -8t81 -24.5t71 -39t48 -53.5v127q0 74 -61.5 126t-153.5 52q-80 0 -160 -31.5t-145 -97.5l-115 154q53 53 112.5 86t121 50.5t119 23.5t102.5 6q92 0 173 -22.5t142.5 -68.5t96 -117t34.5 -167v-645h-266v104 q-16 -31 -48 -55t-71 -40.5t-81 -26t-81 -9.5q-68 0 -140.5 18.5t-130.5 59.5t-96 104.5t-38 155.5zM326 1434h221l260 -301h-229zM348 317q0 -49 22.5 -81.5t54.5 -52t69.5 -28t68.5 -8.5q57 0 117.5 26t87.5 73v145q-27 47 -87 71.5t-118 24.5q-31 0 -68.5 -8t-69.5 -27.5 t-54.5 -52t-22.5 -82.5z" />
<glyph unicode="&#xe1;" horiz-adv-x="1157" d="M82 311q0 98 38 163t96 103.5t131 55t140 16.5q39 0 81 -8t81 -24.5t71 -39t48 -53.5v127q0 74 -61.5 126t-153.5 52q-80 0 -160 -31.5t-145 -97.5l-115 154q53 53 112.5 86t121 50.5t119 23.5t102.5 6q92 0 173 -22.5t142.5 -68.5t96 -117t34.5 -167v-645h-266v104 q-16 -31 -48 -55t-71 -40.5t-81 -26t-81 -9.5q-68 0 -140.5 18.5t-130.5 59.5t-96 104.5t-38 155.5zM338 1133l260 301h221l-252 -301h-229zM348 317q0 -49 22.5 -81.5t54.5 -52t69.5 -28t68.5 -8.5q57 0 117.5 26t87.5 73v145q-27 47 -87 71.5t-118 24.5q-31 0 -68.5 -8 t-69.5 -27.5t-54.5 -52t-22.5 -82.5z" />
<glyph unicode="&#xe2;" horiz-adv-x="1157" d="M82 311q0 98 38 163t96 103.5t131 55t140 16.5q39 0 81 -8t81 -24.5t71 -39t48 -53.5v127q0 74 -61.5 126t-153.5 52q-80 0 -160 -31.5t-145 -97.5l-115 154q53 53 112.5 86t121 50.5t119 23.5t102.5 6q92 0 173 -22.5t142.5 -68.5t96 -117t34.5 -167v-645h-266v104 q-16 -31 -48 -55t-71 -40.5t-81 -26t-81 -9.5q-68 0 -140.5 18.5t-130.5 59.5t-96 104.5t-38 155.5zM303 1133l182 301h189l172 -301h-195l-73 159l-80 -159h-195zM348 317q0 -49 22.5 -81.5t54.5 -52t69.5 -28t68.5 -8.5q57 0 117.5 26t87.5 73v145q-27 47 -87 71.5 t-118 24.5q-31 0 -68.5 -8t-69.5 -27.5t-54.5 -52t-22.5 -82.5z" />
<glyph unicode="&#xe3;" horiz-adv-x="1157" d="M82 311q0 98 38 163t96 103.5t131 55t140 16.5q39 0 81 -8t81 -24.5t71 -39t48 -53.5v127q0 74 -61.5 126t-153.5 52q-80 0 -160 -31.5t-145 -97.5l-115 154q53 53 112.5 86t121 50.5t119 23.5t102.5 6q92 0 173 -22.5t142.5 -68.5t96 -117t34.5 -167v-645h-266v104 q-16 -31 -48 -55t-71 -40.5t-81 -26t-81 -9.5q-68 0 -140.5 18.5t-130.5 59.5t-96 104.5t-38 155.5zM168 1171q4 41 23.5 92.5t53.5 95.5t80 73.5t103 29.5q72 0 114 -25.5t76 -66.5q29 -35 46.5 -51t50.5 -16q53 0 77.5 40.5t38.5 118.5l160 -35q-6 -41 -26.5 -91t-54 -94 t-81 -73.5t-104.5 -29.5q-72 0 -111 24.5t-73 65.5q-29 37 -46.5 53t-52.5 16q-53 0 -76.5 -42t-39.5 -119zM348 317q0 -49 22.5 -81.5t54.5 -52t69.5 -28t68.5 -8.5q57 0 117.5 26t87.5 73v145q-27 47 -87 71.5t-118 24.5q-31 0 -68.5 -8t-69.5 -27.5t-54.5 -52 t-22.5 -82.5z" />
<glyph unicode="&#xe4;" horiz-adv-x="1157" d="M82 311q0 98 38 163t96 103.5t131 55t140 16.5q39 0 81 -8t81 -24.5t71 -39t48 -53.5v127q0 74 -61.5 126t-153.5 52q-80 0 -160 -31.5t-145 -97.5l-115 154q53 53 112.5 86t121 50.5t119 23.5t102.5 6q92 0 173 -22.5t142.5 -68.5t96 -117t34.5 -167v-645h-266v104 q-16 -31 -48 -55t-71 -40.5t-81 -26t-81 -9.5q-68 0 -140.5 18.5t-130.5 59.5t-96 104.5t-38 155.5zM236 1319q0 55 39.5 95t95.5 40q57 0 97 -40t40 -95q0 -57 -40 -97t-97 -40q-55 0 -95 40t-40 97zM348 317q0 -49 22.5 -81.5t54.5 -52t69.5 -28t68.5 -8.5q57 0 117.5 26 t87.5 73v145q-27 47 -87 71.5t-118 24.5q-31 0 -68.5 -8t-69.5 -27.5t-54.5 -52t-22.5 -82.5zM647 1319q0 55 40 95t95 40q57 0 97.5 -40t40.5 -95q0 -57 -40 -97t-98 -40q-55 0 -95 40t-40 97z" />
<glyph unicode="&#xe5;" horiz-adv-x="1157" d="M82 311q0 98 38 163t96 103.5t131 55t140 16.5q39 0 81 -8t81 -24.5t71 -39t48 -53.5v127q0 74 -61.5 126t-153.5 52q-80 0 -160 -31.5t-145 -97.5l-115 154q53 53 112.5 86t121 50.5t119 23.5t102.5 6q92 0 173 -22.5t142.5 -68.5t96 -117t34.5 -167v-645h-266v104 q-16 -31 -48 -55t-71 -40.5t-81 -26t-81 -9.5q-68 0 -140.5 18.5t-130.5 59.5t-96 104.5t-38 155.5zM348 317q0 -49 22.5 -81.5t54.5 -52t69.5 -28t68.5 -8.5q57 0 117.5 26t87.5 73v145q-27 47 -87 71.5t-118 24.5q-31 0 -68.5 -8t-69.5 -27.5t-54.5 -52t-22.5 -82.5z M381 1309q0 82 55.5 141t149.5 59q92 0 148.5 -59t56.5 -141q0 -84 -56.5 -143.5t-148.5 -59.5q-94 0 -149.5 59.5t-55.5 143.5zM487 1309q0 -53 26 -86t73 -33t72.5 33t25.5 86t-25.5 85.5t-72.5 32.5t-73 -32.5t-26 -85.5z" />
<glyph unicode="&#xe6;" horiz-adv-x="1869" d="M84 311q0 98 38 163t96 103.5t131 55t140 16.5q39 0 81 -8t81 -24.5t71 -40t48 -54.5v129q0 76 -61.5 127t-153.5 51q-80 0 -160 -31.5t-145 -97.5l-115 154q53 53 112.5 85t121 50.5t119 24.5t102.5 6q113 0 196.5 -42t135.5 -118q63 72 152 115t206 43q109 0 202 -40 t160.5 -109.5t106.5 -166t39 -206.5v-86h-762q20 -98 96 -161t193 -63q61 0 139 25t131 78l133 -156q-45 -47 -100 -77.5t-111.5 -49t-111 -26t-101.5 -7.5q-119 0 -212 40t-158 112q-18 -25 -56.5 -51.5t-90.5 -49t-116.5 -37t-136.5 -14.5q-76 0 -154.5 19.5t-142 60.5 t-103.5 104.5t-40 153.5zM350 317q0 -49 22.5 -81.5t54.5 -52t70 -28t68 -8.5q57 0 117.5 25t87.5 74v145q-27 47 -87 71.5t-118 24.5q-31 0 -68.5 -8t-69.5 -27.5t-54.5 -52t-22.5 -82.5zM1024 580h520q-4 45 -22.5 88t-51 76.5t-78.5 54t-108 20.5q-59 0 -105 -19.5 t-78 -53t-51.5 -76.5t-25.5 -90z" />
<glyph unicode="&#xe7;" horiz-adv-x="1056" d="M82 496q0 113 40 209t110.5 165.5t167 108.5t208.5 39q131 0 230.5 -46t175.5 -134l-172 -158q-45 59 -99.5 91t-124.5 32q-57 0 -105 -22.5t-84 -63.5t-55.5 -97.5t-19.5 -123.5q0 -68 19.5 -125.5t55.5 -97.5t84 -62.5t105 -22.5q70 0 124.5 31t99.5 90l172 -155 q-76 -88 -175.5 -134.5t-230.5 -46.5q-113 0 -209 39t-166.5 108.5t-110.5 166t-40 209.5zM350 -330l51 117q41 -33 84 -49.5t78 -16.5q59 0 80 18.5t21 35.5q0 37 -36 45t-67 -21l-100 49l61 164l131 -4l-43 -114q31 14 68 14t68.5 -15.5t54 -46t22.5 -77.5 q0 -66 -64.5 -114t-174.5 -48q-88 0 -147.5 22.5t-86.5 40.5z" />
<glyph unicode="&#xe8;" horiz-adv-x="1189" d="M82 496q0 109 38 203t107.5 165.5t164.5 112.5t208 41q111 0 204 -40t160.5 -109.5t106.5 -166t39 -206.5v-86h-762q20 -98 96 -161t191 -63q31 0 66.5 6.5t72.5 18.5t71 31.5t60 46.5l133 -154q-45 -47 -99 -78.5t-111.5 -50t-111.5 -26t-102 -7.5q-113 0 -210 39 t-168.5 107.5t-112.5 165t-41 211.5zM344 580h522q-6 45 -24.5 88t-50 76.5t-78.5 54t-109 20.5q-57 0 -103 -19.5t-78 -53t-52.5 -76.5t-26.5 -90zM362 1434h220l262 -301h-232z" />
<glyph unicode="&#xe9;" horiz-adv-x="1189" d="M82 496q0 109 38 203t107.5 165.5t164.5 112.5t208 41q111 0 204 -40t160.5 -109.5t106.5 -166t39 -206.5v-86h-762q20 -98 96 -161t191 -63q31 0 66.5 6.5t72.5 18.5t71 31.5t60 46.5l133 -154q-45 -47 -99 -78.5t-111.5 -50t-111.5 -26t-102 -7.5q-113 0 -210 39 t-168.5 107.5t-112.5 165t-41 211.5zM344 580h522q-6 45 -24.5 88t-50 76.5t-78.5 54t-109 20.5q-57 0 -103 -19.5t-78 -53t-52.5 -76.5t-26.5 -90zM346 1133l262 301h219l-249 -301h-232z" />
<glyph unicode="&#xea;" horiz-adv-x="1189" d="M82 496q0 109 38 203t107.5 165.5t164.5 112.5t208 41q111 0 204 -40t160.5 -109.5t106.5 -166t39 -206.5v-86h-762q20 -98 96 -161t191 -63q31 0 66.5 6.5t72.5 18.5t71 31.5t60 46.5l133 -154q-45 -47 -99 -78.5t-111.5 -50t-111.5 -26t-102 -7.5q-113 0 -210 39 t-168.5 107.5t-112.5 165t-41 211.5zM326 1133l182 301h188l174 -301h-194l-76 159l-80 -159h-194zM344 580h522q-6 45 -24.5 88t-50 76.5t-78.5 54t-109 20.5q-57 0 -103 -19.5t-78 -53t-52.5 -76.5t-26.5 -90z" />
<glyph unicode="&#xeb;" horiz-adv-x="1189" d="M82 496q0 109 38 203t107.5 165.5t164.5 112.5t208 41q111 0 204 -40t160.5 -109.5t106.5 -166t39 -206.5v-86h-762q20 -98 96 -161t191 -63q31 0 66.5 6.5t72.5 18.5t71 31.5t60 46.5l133 -154q-45 -47 -99 -78.5t-111.5 -50t-111.5 -26t-102 -7.5q-113 0 -210 39 t-168.5 107.5t-112.5 165t-41 211.5zM252 1319q0 55 40 95t97 40q55 0 95 -40t40 -95q0 -57 -40 -97t-95 -40q-57 0 -97 40t-40 97zM344 580h522q-6 45 -24.5 88t-50 76.5t-78.5 54t-109 20.5q-57 0 -103 -19.5t-78 -53t-52.5 -76.5t-26.5 -90zM664 1319q0 55 39.5 95 t97.5 40q55 0 95 -40t40 -95q0 -57 -40 -97t-95 -40q-57 0 -97 40t-40 97z" />
<glyph unicode="&#xec;" horiz-adv-x="507" d="M14 1434h222l260 -301h-230zM121 0v989h266v-989h-266z" />
<glyph unicode="&#xed;" horiz-adv-x="507" d="M14 1133l262 301h222l-252 -301h-232zM121 0v989h266v-989h-266z" />
<glyph unicode="&#xee;" horiz-adv-x="507" d="M-18 1133l182 301h188l174 -301h-194l-76 159l-80 -159h-194zM121 0v989h266v-989h-266z" />
<glyph unicode="&#xef;" horiz-adv-x="507" d="M-86 1319q0 55 39 95t96 40t96 -40t39 -95q0 -57 -39 -97t-96 -40t-96 40t-39 97zM121 0v989h266v-989h-266zM326 1319q0 55 38.5 95t96.5 40q57 0 96 -40t39 -95q0 -57 -39 -97t-96 -40t-96 40t-39 97z" />
<glyph unicode="&#xf0;" horiz-adv-x="1216" d="M82 496q0 121 35 217t95 163.5t142 104.5t174 37q102 0 181 -39t120 -113v205h-131v135h131v160h267v-160h123v-135h-123v-1071h-267v123q-41 -72 -119.5 -111t-181.5 -39q-92 0 -173 36t-142 102.5t-96 164t-35 220.5zM354 496q0 -68 19.5 -124.5t53.5 -98.5t81 -64.5 t104 -22.5q70 0 128.5 28t88.5 77v409q-31 47 -89 76t-128 29q-57 0 -104 -22.5t-81 -64.5t-53.5 -98.5t-19.5 -123.5z" />
<glyph unicode="&#xf1;" horiz-adv-x="1177" d="M121 0v989h266v-115q23 25 53.5 50.5t71.5 46t93 34t118 13.5q162 0 248 -94.5t86 -247.5v-676h-266v606q0 98 -52.5 143.5t-130.5 45.5t-129 -32t-92 -81v-682h-266zM172 1171q6 41 25.5 92.5t52.5 95.5t79 73.5t103 29.5q72 0 114 -25.5t77 -66.5q31 -35 47 -51t51 -16 q53 0 76.5 40.5t40.5 118.5l157 -35q-4 -41 -24.5 -91t-55 -94t-82 -73.5t-104.5 -29.5q-72 0 -110.5 24.5t-73.5 65.5q-29 37 -46.5 53t-49.5 16q-53 0 -78 -42t-39 -119z" />
<glyph unicode="&#xf2;" horiz-adv-x="1218" d="M82 496q0 106 37 200.5t106.5 166t166.5 113.5t216 42q121 0 219.5 -42t168 -113.5t106.5 -166t37 -200.5t-37 -200.5t-106.5 -166.5t-167 -114t-218.5 -42t-218 42t-166.5 114t-106.5 166t-37 201zM356 496q0 -137 66.5 -222.5t185.5 -85.5q121 0 188.5 85.5t67.5 222.5 q0 135 -67.5 221t-186.5 86q-121 0 -187.5 -86t-66.5 -221zM356 1434h222l260 -301h-232z" />
<glyph unicode="&#xf3;" horiz-adv-x="1218" d="M82 496q0 106 37 200.5t106.5 166t166.5 113.5t216 42q121 0 219.5 -42t168 -113.5t106.5 -166t37 -200.5t-37 -200.5t-106.5 -166.5t-167 -114t-218.5 -42t-218 42t-166.5 114t-106.5 166t-37 201zM356 496q0 -137 66.5 -222.5t185.5 -85.5q121 0 188.5 85.5t67.5 222.5 q0 135 -67.5 221t-186.5 86q-121 0 -187.5 -86t-66.5 -221zM365 1133l260 301h221l-250 -301h-231z" />
<glyph unicode="&#xf4;" horiz-adv-x="1218" d="M82 496q0 106 37 200.5t106.5 166t166.5 113.5t216 42q121 0 219.5 -42t168 -113.5t106.5 -166t37 -200.5t-37 -200.5t-106.5 -166.5t-167 -114t-218.5 -42t-218 42t-166.5 114t-106.5 166t-37 201zM338 1133l182 301h189l172 -301h-195l-74 159l-80 -159h-194zM356 496 q0 -137 66.5 -222.5t185.5 -85.5q121 0 188.5 85.5t67.5 222.5q0 135 -67.5 221t-186.5 86q-121 0 -187.5 -86t-66.5 -221z" />
<glyph unicode="&#xf5;" horiz-adv-x="1218" d="M82 496q0 106 37 200.5t106.5 166t166.5 113.5t216 42q121 0 219.5 -42t168 -113.5t106.5 -166t37 -200.5t-37 -200.5t-106.5 -166.5t-167 -114t-218.5 -42t-218 42t-166.5 114t-106.5 166t-37 201zM193 1171q4 41 23.5 92.5t52 95.5t78.5 73.5t104 29.5 q74 0 114.5 -25.5t75.5 -66.5q31 -35 48.5 -51t49.5 -16q53 0 78 40.5t39 118.5l158 -35q-4 -41 -24.5 -91t-55.5 -94t-82 -73.5t-104 -29.5q-72 0 -110 24.5t-73 65.5q-31 37 -48 53t-50 16q-53 0 -77.5 -42t-39.5 -119zM356 496q0 -137 66.5 -222.5t185.5 -85.5 q121 0 188.5 85.5t67.5 222.5q0 135 -67.5 221t-186.5 86q-121 0 -187.5 -86t-66.5 -221z" />
<glyph unicode="&#xf6;" horiz-adv-x="1218" d="M82 496q0 106 37 200.5t106.5 166t166.5 113.5t216 42q121 0 219.5 -42t168 -113.5t106.5 -166t37 -200.5t-37 -200.5t-106.5 -166.5t-167 -114t-218.5 -42t-218 42t-166.5 114t-106.5 166t-37 201zM262 1319q0 55 40 95t97 40q55 0 95.5 -40t40.5 -95q0 -57 -40 -97 t-96 -40q-57 0 -97 40t-40 97zM356 496q0 -137 66.5 -222.5t185.5 -85.5q121 0 188.5 85.5t67.5 222.5q0 135 -67.5 221t-186.5 86q-121 0 -187.5 -86t-66.5 -221zM674 1319q0 55 40 95t95 40q57 0 97 -40t40 -95q0 -57 -40 -97t-97 -40q-55 0 -95 40t-40 97z" />
<glyph unicode="&#xf7;" horiz-adv-x="1046" d="M59 420v164h928v-164h-928zM379 106q0 55 38 95.5t103 40.5q63 0 102.5 -40.5t39.5 -95.5q0 -57 -39 -96t-103 -39q-66 0 -103.5 39t-37.5 96zM381 899q0 55 39 95t104 40q63 0 102.5 -40t39.5 -95q0 -57 -39 -96t-103 -39q-66 0 -104.5 39t-38.5 96z" />
<glyph unicode="&#xf8;" horiz-adv-x="1236" d="M92 496q0 106 38 200.5t106.5 166t167 113.5t217.5 42q164 0 290 -80l43 51h166l-112 -129q68 -72 104.5 -166t36.5 -198q0 -106 -37 -200.5t-106.5 -166.5t-167 -114t-217.5 -42q-86 0 -162 21.5t-137 62.5l-50 -57h-166l121 139q-66 72 -100.5 162t-34.5 195zM367 496 q0 -45 10 -84t26 -74l353 426q-57 39 -135 39q-119 0 -186.5 -86t-67.5 -221zM477 233q61 -45 144 -45q121 0 187 85.5t66 222.5q0 98 -43 166z" />
<glyph unicode="&#xf9;" horiz-adv-x="1177" d="M121 313v676h266v-606q0 -98 52.5 -143t129.5 -45q78 0 129.5 32.5t92.5 79.5v682h266v-989h-266v117q-23 -25 -53.5 -50.5t-71.5 -46t-93.5 -34t-117.5 -13.5q-162 0 -248 93.5t-86 246.5zM342 1434h221l260 -301h-231z" />
<glyph unicode="&#xfa;" horiz-adv-x="1177" d="M121 313v676h266v-606q0 -98 52.5 -143t129.5 -45q78 0 129.5 32.5t92.5 79.5v682h266v-989h-266v117q-23 -25 -53.5 -50.5t-71.5 -46t-93.5 -34t-117.5 -13.5q-162 0 -248 93.5t-86 246.5zM348 1133l260 301h221l-249 -301h-232z" />
<glyph unicode="&#xfb;" horiz-adv-x="1177" d="M121 313v676h266v-606q0 -98 52.5 -143t129.5 -45q78 0 129.5 32.5t92.5 79.5v682h266v-989h-266v117q-23 -25 -53.5 -50.5t-71.5 -46t-93.5 -34t-117.5 -13.5q-162 0 -248 93.5t-86 246.5zM317 1133l183 301h188l174 -301h-194l-76 159l-80 -159h-195z" />
<glyph unicode="&#xfc;" horiz-adv-x="1177" d="M121 313v676h266v-606q0 -98 52.5 -143t129.5 -45q78 0 129.5 32.5t92.5 79.5v682h266v-989h-266v117q-23 -25 -53.5 -50.5t-71.5 -46t-93.5 -34t-117.5 -13.5q-162 0 -248 93.5t-86 246.5zM244 1319q0 55 40 95t97 40q55 0 95 -40t40 -95q0 -57 -40 -96t-95 -39 q-57 0 -97 39t-40 96zM655 1319q0 55 40 95t98 40q55 0 95 -40t40 -95q0 -57 -40 -96t-95 -39q-57 0 -97.5 39t-40.5 96z" />
<glyph unicode="&#xfd;" horiz-adv-x="1089" d="M0 989h287l258 -729l258 729h287l-465 -1145q-37 -90 -82 -143t-102.5 -81t-127 -36t-153.5 -8v234q104 0 152 26.5t71 79.5q6 10 10 21.5t8 19.5l9 18zM303 1133l260 301h221l-252 -301h-229z" />
<glyph unicode="&#xfe;" horiz-adv-x="1216" d="M121 -395v1761h266v-500q41 74 120 113t181 39q94 0 176 -36t142.5 -102.5t95.5 -163.5t35 -220t-35 -220.5t-95.5 -164t-142.5 -102.5t-176 -36q-102 0 -181 38t-120 112v-518h-266zM387 291q31 -49 89.5 -77t127.5 -28q57 0 104.5 22.5t81 64.5t53 98.5t19.5 124.5 t-19.5 124t-53 98t-80.5 64.5t-105 22.5q-70 0 -128 -28.5t-89 -76.5v-409z" />
<glyph unicode="&#xff;" horiz-adv-x="1089" d="M0 989h287l258 -729l258 729h287l-465 -1145q-37 -90 -82 -143t-102.5 -81t-127 -36t-153.5 -8v234q104 0 152 26.5t71 79.5q6 10 10 21.5t8 19.5l9 18zM209 1319q0 55 40 95t95 40q57 0 97 -40t40 -95q0 -57 -40 -97t-97 -40q-55 0 -95 40t-40 97zM621 1319 q0 55 39.5 95t95.5 40q57 0 97 -40t40 -95q0 -57 -40 -97t-97 -40q-55 0 -95 40t-40 97z" />
<glyph unicode="&#x131;" horiz-adv-x="507" d="M121 0v989h266v-989h-266z" />
<glyph unicode="&#x141;" horiz-adv-x="1040" d="M0 623v159h127v584h295v-584h151v-159h-151v-381h577v-242h-872v623h-127z" />
<glyph unicode="&#x142;" horiz-adv-x="507" d="M-35 623v153h156v590h266v-590h160v-153h-160v-623h-266v623h-156z" />
<glyph unicode="&#x152;" horiz-adv-x="2238" d="M86 682q0 154 52 286t144.5 230t220.5 153.5t279 55.5q129 0 232.5 -47t177.5 -127v133h979v-242h-682v-313h670v-229h-670v-338h682v-244h-979v133q-74 -80 -177.5 -127t-232.5 -47q-152 0 -279.5 55.5t-220 152.5t-144.5 229t-52 286zM387 682q0 -98 29.5 -185 t86 -151.5t137.5 -102.5t183 -38q129 0 222.5 54t146.5 147v555q-53 92 -146.5 146t-222.5 54q-102 0 -183 -38t-137.5 -102.5t-86 -152.5t-29.5 -186z" />
<glyph unicode="&#x153;" horiz-adv-x="1972" d="M82 496q0 106 37 200.5t106.5 166t166.5 113.5t216 42q129 0 226.5 -53.5t156.5 -143.5q63 90 162.5 143.5t228.5 53.5q109 0 202 -40t162 -109.5t107.5 -166t38.5 -206.5v-86h-764q23 -98 97.5 -161t191.5 -63q31 0 67 6.5t72.5 18.5t70.5 31.5t61 46.5l133 -156 q-45 -47 -99.5 -77.5t-112 -49t-111.5 -26t-101 -7.5q-131 0 -235.5 52.5t-170.5 144.5q-59 -90 -156.5 -143.5t-226.5 -53.5q-119 0 -216 42t-166.5 114t-106.5 166t-37 201zM354 496q0 -137 67.5 -222.5t186.5 -85.5q121 0 188.5 85.5t67.5 222.5t-67.5 222t-188.5 85 q-119 0 -186.5 -85t-67.5 -222zM1126 580h523q-6 45 -24.5 88t-50.5 76.5t-79 54t-109 20.5q-57 0 -103 -19.5t-77.5 -53t-52 -76.5t-27.5 -90z" />
<glyph unicode="&#x160;" horiz-adv-x="1286" d="M59 188l174 199q16 -25 52.5 -58.5t86.5 -64.5t110.5 -52.5t125.5 -21.5q55 0 105.5 11.5t87.5 33t58.5 55.5t21.5 79q0 74 -76 121t-236 73q-141 23 -234 66t-148.5 98t-78 121.5t-22.5 138.5q0 84 40 160t110.5 133t168 92t213.5 35q106 0 191.5 -17.5t152 -47 t114.5 -66.5t83 -74l-170 -178q-27 31 -65.5 58.5t-84.5 48t-96.5 33t-99.5 12.5q-45 0 -87 -10.5t-74.5 -31t-52 -52t-19.5 -76.5q0 -68 64.5 -105t205.5 -61q119 -20 215 -52t164.5 -84.5t105.5 -126.5t37 -178q0 -111 -47 -193.5t-127 -137t-185.5 -82t-224.5 -27.5 q-111 0 -198.5 21.5t-156 55.5t-119 75t-85.5 77zM373 1792h194l80 -160l74 160h194l-172 -301h-188z" />
<glyph unicode="&#x161;" horiz-adv-x="1017" d="M49 143l137 168q18 -23 50 -47t72 -45.5t84 -35t89 -13.5q80 0 130.5 27.5t50.5 83.5q0 51 -56.5 77.5t-161.5 40.5q-182 23 -274 98.5t-92 219.5q0 66 31.5 121t87 95t131 62.5t166.5 22.5q147 0 245.5 -44t153.5 -97l-121 -154q-31 41 -103.5 73.5t-152.5 32.5 q-70 0 -122 -21.5t-52 -74.5q0 -51 48 -73.5t159 -38.5q197 -27 292 -104t95 -222q0 -74 -31 -133.5t-88 -101.5t-138 -64.5t-181 -22.5q-86 0 -154 14.5t-123 39t-97 55.5t-75 61zM219 1434h195l80 -162l75 162h195l-174 -304h-189z" />
<glyph unicode="&#x178;" horiz-adv-x="1361" d="M2 1366h350l328 -537l330 537h348l-533 -803v-563h-293v563zM342 1628q0 57 40 96t95 39q57 0 97 -39t40 -96t-39.5 -96t-97.5 -39q-55 0 -95 39t-40 96zM754 1628q0 57 40 96t95 39q57 0 97 -39t40 -96t-40 -96t-97 -39q-55 0 -95 39t-40 96z" />
<glyph unicode="&#x17d;" horiz-adv-x="1249" d="M86 0v250l694 874h-694v242h1067v-242l-711 -882h725v-242h-1081zM362 1792h195l80 -160l74 160h194l-172 -301h-188z" />
<glyph unicode="&#x17e;" horiz-adv-x="980" d="M82 0v209l502 584h-502v196h813v-196l-514 -594h522v-199h-821zM223 1434h195l80 -162l75 162h195l-174 -304h-188z" />
<glyph unicode="&#x192;" horiz-adv-x="1587" d="M-31 791v198h164v82q0 74 28.5 134.5t79 103.5t117 66.5t142.5 23.5q80 0 149.5 -25.5t110.5 -73.5q98 98 260 99q53 0 105.5 -25.5t74.5 -58.5v51h266v-1366h-266v1145q-18 23 -60 37t-79 14q-53 0 -90 -34t-37 -93v-80h184v-198h-184v-791h-266v791h-269v-791h-266v791 h-164zM399 989h269v82q0 41 8 68q-23 31 -62 44t-82 13q-53 0 -93 -34t-40 -93v-80z" />
<glyph unicode="&#x2c6;" horiz-adv-x="542" d="M0 1133l182 301h189l172 -301h-195l-74 159l-79 -159h-195z" />
<glyph unicode="&#x2c7;" horiz-adv-x="542" d="M0 1434h195l79 -162l74 162h195l-172 -304h-189z" />
<glyph unicode="&#x2d8;" horiz-adv-x="811" d="M43 1346l135 102q39 -53 96.5 -84t126.5 -31q70 0 128.5 31t95.5 84l137 -102q-61 -84 -154.5 -132.5t-204.5 -48.5t-204 48.5t-156 132.5z" />
<glyph unicode="&#x2d9;" horiz-adv-x="364" d="M35 1296q0 59 43 103.5t104 44.5t104.5 -44.5t43.5 -103.5q0 -61 -43 -105t-105 -44q-61 0 -104 44t-43 105z" />
<glyph unicode="&#x2da;" horiz-adv-x="438" d="M16 1337q0 84 55.5 143.5t147.5 59.5q94 0 149.5 -59.5t55.5 -143.5q0 -82 -55.5 -141t-149.5 -59q-92 0 -147.5 59t-55.5 141zM123 1337q0 -53 25.5 -85.5t70.5 -32.5q47 0 72.5 32.5t25.5 85.5t-25.5 86t-72.5 33q-45 0 -70.5 -32.5t-25.5 -86.5z" />
<glyph unicode="&#x2db;" horiz-adv-x="399" d="M20 37h138v-232q0 -39 21.5 -58t56.5 -19t55 13t41 42l65 -92q-25 -29 -70.5 -54.5t-101.5 -25.5q-88 0 -146.5 45t-58.5 143v238z" />
<glyph unicode="&#x2dc;" horiz-adv-x="823" d="M0 1171q4 41 23.5 92.5t53.5 95.5t80 73.5t103 29.5q72 0 113 -25.5t76 -66.5q31 -35 48 -51t50 -16q53 0 77.5 40.5t39.5 118.5l159 -35q-6 -41 -26.5 -91t-54 -94t-81 -73.5t-104.5 -29.5q-74 0 -111.5 24.5t-72.5 65.5q-31 37 -48.5 53t-50.5 16q-53 0 -77.5 -42 t-38.5 -119z" />
<glyph unicode="&#x2dd;" horiz-adv-x="688" d="M0 1133l139 299h211l-133 -299h-217zM338 1133l139 299h211l-133 -299h-217z" />
<glyph unicode="&#x3c0;" horiz-adv-x="1593" d="M72 682q0 152 57 284t155.5 230t230.5 155.5t282 57.5q152 0 283.5 -57.5t230 -155.5t155 -230t56.5 -284q0 -150 -56.5 -282t-155 -230t-230.5 -155.5t-283 -57.5q-150 0 -282 57.5t-230.5 155.5t-155.5 230t-57 282zM162 682q0 -131 50 -247t136 -202t202 -136t247 -50 q133 0 248.5 50t201.5 136t136.5 202t50.5 247q0 133 -50.5 249t-136.5 202t-201.5 135t-248.5 49q-131 0 -247 -49t-202 -135t-136 -202t-50 -249zM545 268v830h340q51 0 98 -18.5t84 -51.5t58.5 -79t21.5 -103q0 -55 -21.5 -100.5t-57.5 -78t-83 -51t-100 -18.5h-230v-330 h-110zM655 696h230q27 0 53.5 11.5t47 32t32.5 47t12 59.5q0 35 -12 62.5t-32.5 48t-47.5 31.5t-53 11h-230v-303z" />
<glyph unicode="&#x2000;" horiz-adv-x="929" />
<glyph unicode="&#x2001;" horiz-adv-x="1858" />
<glyph unicode="&#x2002;" horiz-adv-x="929" />
<glyph unicode="&#x2003;" horiz-adv-x="1858" />
<glyph unicode="&#x2004;" horiz-adv-x="619" />
<glyph unicode="&#x2005;" horiz-adv-x="464" />
<glyph unicode="&#x2006;" horiz-adv-x="309" />
<glyph unicode="&#x2007;" horiz-adv-x="309" />
<glyph unicode="&#x2008;" horiz-adv-x="232" />
<glyph unicode="&#x2009;" horiz-adv-x="371" />
<glyph unicode="&#x200a;" horiz-adv-x="103" />
<glyph unicode="&#x2010;" horiz-adv-x="614" d="M61 377v235h492v-235h-492z" />
<glyph unicode="&#x2011;" horiz-adv-x="614" d="M61 377v235h492v-235h-492z" />
<glyph unicode="&#x2012;" horiz-adv-x="614" d="M61 377v235h492v-235h-492z" />
<glyph unicode="&#x2013;" horiz-adv-x="1214" d="M61 377v235h1092v-235h-1092z" />
<glyph unicode="&#x2014;" horiz-adv-x="1705" d="M61 377v235h1584v-235h-1584z" />
<glyph unicode="&#x2018;" horiz-adv-x="512" d="M82 993q0 121 50 223.5t149 190.5l118 -96q-20 -14 -43.5 -36t-46 -45.5t-39 -48t-20.5 -48.5q16 4 37.5 -0.5t38.5 -10.5q43 -16 74.5 -57t31.5 -94q0 -74 -51 -125t-125 -51q-29 0 -59.5 10t-56 33.5t-42 61.5t-16.5 93z" />
<glyph unicode="&#x2019;" horiz-adv-x="512" d="M82 1210q0 74 51 125t123 51q29 0 59.5 -10t57 -33.5t43 -61.5t16.5 -93q0 -121 -52 -222.5t-151 -191.5l-116 96q20 16 43.5 37t46 44.5t39 48t20.5 49.5q-16 -4 -38.5 -1t-39.5 11q-41 16 -71.5 57t-30.5 94z" />
<glyph unicode="&#x201a;" horiz-adv-x="512" d="M82 162q0 37 13.5 68.5t37 55t55 38t68.5 14.5q29 0 59.5 -10.5t57 -34t43 -61.5t16.5 -93q0 -121 -52 -223t-151 -190l-116 94q20 16 43.5 37.5t46 45t39 48t20.5 49.5q-16 -4 -38.5 -1t-39.5 9q-41 16 -71.5 58.5t-30.5 95.5z" />
<glyph unicode="&#x201c;" horiz-adv-x="944" d="M82 993q0 121 50 223.5t149 190.5l118 -96q-20 -14 -43.5 -36t-46 -45.5t-39 -48t-20.5 -48.5q16 4 37.5 -0.5t38.5 -10.5q43 -16 74.5 -57t31.5 -94q0 -74 -51 -125t-125 -51q-29 0 -59.5 10t-56 33.5t-42 61.5t-16.5 93zM512 993q0 121 51 223.5t150 190.5l118 -96 q-20 -14 -43.5 -36t-46 -45.5t-39 -48t-22.5 -48.5q16 4 38.5 -0.5t39.5 -10.5q43 -16 74.5 -57t31.5 -94q0 -37 -14 -69t-38 -56.5t-55.5 -37.5t-68.5 -13q-29 0 -59.5 10t-57 33.5t-43 61.5t-16.5 93z" />
<glyph unicode="&#x201d;" horiz-adv-x="944" d="M82 1202q0 37 13.5 69t37 55.5t55 37.5t68.5 14q29 0 59.5 -10t57 -34.5t43 -62.5t16.5 -93q0 -119 -52 -221.5t-151 -190.5l-116 94q20 16 43.5 38t46 45.5t39 48t20.5 48.5q-16 -4 -38.5 -1t-39.5 10q-41 16 -71.5 58t-30.5 95zM512 1202q0 37 14.5 69t38 55.5t55 37.5 t68.5 14q29 0 59.5 -10t57 -34.5t43 -62.5t16.5 -93q0 -119 -52 -221.5t-150 -190.5l-117 94q20 16 43.5 38t46 45.5t39 48t20.5 48.5q-16 -4 -38.5 -1t-39.5 10q-41 16 -72.5 58t-31.5 95z" />
<glyph unicode="&#x201e;" horiz-adv-x="948" d="M82 158q0 74 51 125t123 51q29 0 59.5 -10.5t57 -34t43 -61.5t16.5 -93q0 -119 -52 -221t-151 -193l-116 97q20 16 43.5 36.5t46 44t39 48t20.5 49.5q-16 -2 -38.5 1t-39.5 9q-41 16 -71.5 57t-30.5 95zM512 158q0 37 14.5 68.5t38 56t55 38t68.5 13.5q29 0 59.5 -10.5 t57 -34t43 -61.5t16.5 -93q0 -119 -52 -221t-150 -193l-117 97q20 16 43.5 36.5t46 44t39 48t20.5 49.5q-16 -2 -38.5 1t-39.5 9q-41 16 -72.5 57t-31.5 95z" />
<glyph unicode="&#x2020;" horiz-adv-x="581" d="M41 1083v138l182 -7l-8 193h147l-8 -193l183 7v-138l-183 11l8 -404h-147l8 404z" />
<glyph unicode="&#x2021;" horiz-adv-x="581" d="M41 575v138l182 -8v389l-182 -11v138l182 -7l-8 193h147l-8 -193l183 7v-138l-183 11v-389l183 8v-138l-183 7l8 -191h-147l8 191z" />
<glyph unicode="&#x2022;" horiz-adv-x="733" d="M102 584q0 55 20.5 103t57.5 85t85 57.5t104 20.5q55 0 103 -20.5t85 -57.5t57.5 -85t20.5 -103t-20.5 -103.5t-57.5 -84.5t-85 -56.5t-103 -20.5t-103.5 20.5t-85.5 56.5t-57.5 84t-20.5 104z" />
<glyph unicode="&#x2026;" horiz-adv-x="2017" d="M188 162q0 37 13.5 68.5t37 55t55.5 38t68 14.5q37 0 69 -14.5t56.5 -38t38 -55t13.5 -68.5t-13.5 -69t-38 -55.5t-56.5 -37.5t-69 -14t-68.5 14t-55 37.5t-37 55.5t-13.5 69zM850 162q0 37 14.5 68.5t38 55t55 38t68.5 14.5t68.5 -14.5t55.5 -38t38 -55t14 -68.5 t-14 -69t-38 -55.5t-55.5 -37.5t-68.5 -14t-68.5 14t-55 37.5t-38 55.5t-14.5 69zM1516 162q0 37 13 68.5t36.5 55t55.5 38t69 14.5t68.5 -14.5t56 -38t38 -55t13.5 -68.5t-13.5 -69t-38 -55.5t-56.5 -37.5t-68 -14q-37 0 -69 14t-55.5 37.5t-36.5 55.5t-13 69z" />
<glyph unicode="&#x202f;" horiz-adv-x="371" />
<glyph unicode="&#x2030;" horiz-adv-x="2359" d="M55 1061q0 72 24.5 134t71 109.5t110 75t142.5 27.5q80 0 143.5 -27.5t109.5 -75t71 -109.5t25 -134q0 -70 -25 -132.5t-71 -109.5t-109.5 -74.5t-143.5 -27.5t-143 27.5t-109.5 74.5t-71 109.5t-24.5 132.5zM236 1061q0 -90 44 -145.5t123 -55.5q78 0 123 55.5t45 145.5 q0 92 -45 148.5t-123 56.5q-80 0 -123.5 -56.5t-43.5 -148.5zM264 0l875 1366h198l-872 -1366h-201zM846 303q0 70 24.5 132.5t70.5 109.5t109.5 74.5t143.5 27.5t144.5 -27.5t110.5 -74.5t70.5 -109.5t24.5 -132.5t-24.5 -132t-70.5 -109.5t-110.5 -75t-144.5 -27.5 t-143.5 27.5t-109.5 75t-70.5 109.5t-24.5 132zM1028 303q0 -92 44 -147.5t122 -55.5q80 0 124 55.5t44 147.5t-44 147.5t-124 55.5q-78 0 -122 -55.5t-44 -147.5zM1610 303q0 70 24.5 132.5t70.5 109.5t109.5 74.5t143.5 27.5t144.5 -27.5t110.5 -74.5t70.5 -109.5 t24.5 -132.5t-24.5 -132t-70.5 -109.5t-110.5 -75t-144.5 -27.5t-143.5 27.5t-109.5 75t-70.5 109.5t-24.5 132zM1790 303q0 -92 45 -147.5t123 -55.5t123 55.5t45 147.5t-45 147.5t-123 55.5t-123 -55.5t-45 -147.5z" />
<glyph unicode="&#x2039;" horiz-adv-x="573" d="M0 498l328 362h245l-327 -362l327 -369h-245z" />
<glyph unicode="&#x203a;" horiz-adv-x="573" d="M0 129l328 369l-328 362h246l327 -362l-327 -369h-246z" />
<glyph unicode="&#x2044;" horiz-adv-x="153" d="M-451 0l875 1366h199l-873 -1366h-201z" />
<glyph unicode="&#x205f;" horiz-adv-x="464" />
<glyph unicode="&#x20ac;" horiz-adv-x="1429" d="M33 414v164h59q-6 53 -6 104q0 55 6 104h-59v164h100q39 104 106.5 188.5t157.5 143.5t199 92t227 33q109 0 197 -24.5t157.5 -65.5t123 -96.5t92.5 -116.5l-236 -143q-53 92 -138 146t-196 54q-117 0 -214 -55t-154 -156h503v-164h-563q-4 -25 -6 -50t-2 -54t2 -54.5 t6 -49.5h563v-164h-503q57 -100 154.5 -154.5t213.5 -54.5q111 0 197 54t139 147l236 -142q-39 -61 -92.5 -117.5t-123 -97.5t-158.5 -65.5t-198 -24.5q-119 0 -227.5 33t-198.5 92t-157.5 143t-106.5 187h-100z" />
<glyph unicode="&#x2122;" horiz-adv-x="933" d="M35 1313v53h313v-53h-127v-398h-59v398h-127zM422 915v451h90l131 -328l131 328h88v-451h-57v373l-154 -373h-16l-154 373v-373h-59z" />
<glyph unicode="&#x2126;" horiz-adv-x="1353" d="M96 0v1171h1170v-1171h-1170z" />
<glyph unicode="&#x2202;" horiz-adv-x="1261" d="M-4 1044h1268l-635 -1095z" />
<glyph unicode="&#x2206;" horiz-adv-x="1261" d="M-4 61l633 1096l635 -1098z" />
<glyph unicode="&#x220f;" horiz-adv-x="1105" d="M-31 791v198h164v82q0 74 28.5 134.5t79 103.5t117 66.5t142.5 23.5q82 0 150.5 -26.5t109.5 -74.5q49 49 117.5 75t148.5 26q184 0 277 -101l-113 -161q-47 59 -131 59q-53 0 -89 -34t-36 -93v-80h201v-198h-201v-791h-266v791h-269v-791h-266v791h-164zM399 989h269v82 q0 41 8 68q-23 31 -62 44t-82 13q-53 0 -93 -34t-40 -93v-80z" />
<glyph unicode="&#x2211;" horiz-adv-x="974" d="M33 977l43 43q12 -16 46 -42t81 -26q45 0 79.5 20.5t34.5 63.5q0 63 -131 86q-82 12 -112.5 46t-30.5 79q0 59 48 95t112 36q59 0 99 -20.5t63 -46.5l-41 -41q-16 25 -50 41t-71 16q-35 0 -66 -18.5t-31 -59.5q0 -29 27 -46t88 -27q74 -12 116 -44.5t42 -91.5 q0 -39 -16.5 -65.5t-43 -43t-57.5 -23.5t-59 -7q-61 0 -102.5 23.5t-67.5 52.5zM457 915v451h90l131 -328l131 328h90v-451h-59v373l-154 -373h-16l-154 373v-373h-59z" />
<glyph unicode="&#x2212;" horiz-adv-x="1046" d="M59 420v164h928v-164h-928z" />
<glyph unicode="&#x221a;" horiz-adv-x="1087" d="M0 477l68 154l327 -453l604 1127l88 -88l-673 -1244z" />
<glyph unicode="&#x221e;" horiz-adv-x="1191" d="M0 586l575 418l-24 -265h551v-307h-551l24 -266z" />
<glyph unicode="&#x222b;" horiz-adv-x="1587" d="M-31 791v198h164v82q0 74 28.5 134.5t79 103.5t117 66.5t142.5 23.5q82 0 151.5 -28t110.5 -75q57 51 134 77t161 26q117 0 204 -34t162 -122l-143 -145q-35 55 -82 76.5t-113 21.5q-59 0 -105 -33t-46 -94v-80h184v-198h-184v-791h-266v791h-269v-791h-266v791h-164z M399 989h269v82q0 41 8 66q-23 31 -62 45t-82 14q-53 0 -93 -34t-40 -93v-80zM1200 0v989h266v-989h-266z" />
<glyph unicode="&#x2248;" horiz-adv-x="1353" d="M96 0v1171h1170v-1171h-1170zM168 74h1024v1024h-1024v-1024z" />
<glyph unicode="&#x2260;" horiz-adv-x="1353" d="M96 0v1171h996l186 347l88 -88l-141 -259h41v-1171h-1170zM168 74h1024v1024h-6l-494 -912l-413 506l67 154l328 -453l379 705h-885v-1024z" />
<glyph unicode="&#x2264;" horiz-adv-x="1202" d="M0 586l1096 633v-1266z" />
<glyph unicode="&#x2265;" horiz-adv-x="1202" d="M111 -47v1266l1095 -633z" />
<glyph unicode="&#x25ca;" horiz-adv-x="1028" d="M0 584l512 514l514 -514l-514 -512z" />
<glyph unicode="&#xe000;" horiz-adv-x="993" d="M0 0v993h993v-993h-993z" />
<glyph unicode="&#xf8ff;" horiz-adv-x="1423" d="M102 584q0 127 48.5 237.5t130 192.5t193.5 130t237 48q127 0 237.5 -48t192.5 -130t130 -192.5t48 -237.5q0 -125 -48 -236.5t-130 -193.5t-192.5 -130.5t-237.5 -48.5q-125 0 -237 48.5t-193.5 130.5t-130 193.5t-48.5 236.5z" />
<glyph unicode="&#xfb01;" horiz-adv-x="1054" d="M-31 791v198h164v82q0 82 33 143.5t88 102.5t126 61.5t144 20.5q117 0 204 -34t161 -122l-141 -145q-35 55 -83.5 76.5t-111.5 21.5q-59 0 -106.5 -33t-47.5 -94v-80h187v-198h-187v-791h-266v791h-164zM668 0v989h264v-989h-264z" />
<glyph unicode="&#xfb02;" horiz-adv-x="1054" d="M-31 791v198h164v82q0 74 27.5 134.5t76 103.5t113 66.5t137.5 23.5q53 0 105.5 -25.5t75.5 -58.5v51h264v-1366h-264v1145q-18 23 -60.5 37t-79.5 14q-55 0 -92 -34t-37 -93v-80h187v-198h-187v-791h-266v791h-164z" />
</font>
</defs>
</svg>
